<?xml version="1.0" encoding="UTF-8" standalone="no"?>
<svg
xmlns="http://www.w3.org/2000/svg"
version="1.0"
width="2000" height="2000"
id="2_21_t1_D5.svg">
<!-- v=216 e=2160 -->
<!-- Projection: Point overlap:1 2 3 , visible v=144 e=1464 -->
<g style="stroke:#000000;stroke-width:5.0;stroke-opacity:0.50;">
<line x1="457.415" y1="1542.585" x2="457.415" y2="1224.746"/>
<line x1="457.415" y1="1542.585" x2="1224.746" y2="1542.585"/>
<line x1="457.415" y1="1542.585" x2="682.161" y2="1000.000"/>
<line x1="457.415" y1="1542.585" x2="1000.000" y2="1767.331"/>
<line x1="457.415" y1="1542.585" x2="841.081" y2="1383.665"/>
<line x1="457.415" y1="1542.585" x2="298.496" y2="1383.665"/>
<line x1="457.415" y1="1542.585" x2="457.415" y2="1767.331"/>
<line x1="457.415" y1="1542.585" x2="682.161" y2="1542.585"/>
<line x1="457.415" y1="1542.585" x2="841.081" y2="1926.250"/>
<line x1="457.415" y1="1542.585" x2="232.669" y2="1000.000"/>
<line x1="457.415" y1="1542.585" x2="1000.000" y2="1317.839"/>
<line x1="457.415" y1="1542.585" x2="457.415" y2="775.254"/>
<line x1="457.415" y1="1542.585" x2="775.254" y2="1542.585"/>
<line x1="457.415" y1="1542.585" x2="616.335" y2="1158.919"/>
<line x1="457.415" y1="1542.585" x2="73.750" y2="1158.919"/>
<line x1="457.415" y1="1542.585" x2="232.669" y2="1542.585"/>
<line x1="457.415" y1="1542.585" x2="457.415" y2="1317.839"/>
<line x1="457.415" y1="1542.585" x2="616.335" y2="1701.504"/>
<line x1="1224.746" y1="1224.746" x2="457.415" y2="1224.746"/>
<line x1="1224.746" y1="1224.746" x2="1224.746" y2="1542.585"/>
<line x1="1224.746" y1="1224.746" x2="682.161" y2="1000.000"/>
<line x1="1224.746" y1="1224.746" x2="1000.000" y2="1767.331"/>
<line x1="1224.746" y1="1224.746" x2="841.081" y2="1383.665"/>
<line x1="1224.746" y1="1224.746" x2="682.161" y2="1224.746"/>
<line x1="1224.746" y1="1224.746" x2="841.081" y2="1608.411"/>
<line x1="1224.746" y1="1224.746" x2="1065.827" y2="1383.665"/>
<line x1="1224.746" y1="1224.746" x2="1224.746" y2="1767.331"/>
<line x1="1224.746" y1="1224.746" x2="1000.000" y2="682.161"/>
<line x1="1224.746" y1="1224.746" x2="1767.331" y2="1000.000"/>
<line x1="1224.746" y1="1224.746" x2="1224.746" y2="457.415"/>
<line x1="1224.746" y1="1224.746" x2="1542.585" y2="1224.746"/>
<line x1="1224.746" y1="1224.746" x2="1383.665" y2="841.081"/>
<line x1="1224.746" y1="1224.746" x2="1224.746" y2="682.161"/>
<line x1="1224.746" y1="1224.746" x2="1383.665" y2="1065.827"/>
<line x1="1224.746" y1="1224.746" x2="1608.411" y2="841.081"/>
<line x1="1224.746" y1="1224.746" x2="1767.331" y2="1224.746"/>
<line x1="457.415" y1="1224.746" x2="682.161" y2="1000.000"/>
<line x1="457.415" y1="1224.746" x2="1000.000" y2="1767.331"/>
<line x1="457.415" y1="1224.746" x2="841.081" y2="1383.665"/>
<line x1="457.415" y1="1224.746" x2="298.496" y2="1383.665"/>
<line x1="457.415" y1="1224.746" x2="457.415" y2="1767.331"/>
<line x1="457.415" y1="1224.746" x2="682.161" y2="1224.746"/>
<line x1="457.415" y1="1224.746" x2="841.081" y2="1608.411"/>
<line x1="457.415" y1="1224.746" x2="232.669" y2="1000.000"/>
<line x1="457.415" y1="1224.746" x2="1000.000" y2="682.161"/>
<line x1="457.415" y1="1224.746" x2="457.415" y2="457.415"/>
<line x1="457.415" y1="1224.746" x2="775.254" y2="1224.746"/>
<line x1="457.415" y1="1224.746" x2="616.335" y2="841.081"/>
<line x1="457.415" y1="1224.746" x2="73.750" y2="841.081"/>
<line x1="457.415" y1="1224.746" x2="232.669" y2="1224.746"/>
<line x1="457.415" y1="1224.746" x2="457.415" y2="682.161"/>
<line x1="457.415" y1="1224.746" x2="616.335" y2="1065.827"/>
<line x1="1224.746" y1="1542.585" x2="682.161" y2="1000.000"/>
<line x1="1224.746" y1="1542.585" x2="1000.000" y2="1767.331"/>
<line x1="1224.746" y1="1542.585" x2="841.081" y2="1383.665"/>
<line x1="1224.746" y1="1542.585" x2="682.161" y2="1542.585"/>
<line x1="1224.746" y1="1542.585" x2="841.081" y2="1926.250"/>
<line x1="1224.746" y1="1542.585" x2="1065.827" y2="1383.665"/>
<line x1="1224.746" y1="1542.585" x2="1224.746" y2="1767.331"/>
<line x1="1224.746" y1="1542.585" x2="1000.000" y2="1317.839"/>
<line x1="1224.746" y1="1542.585" x2="1767.331" y2="1000.000"/>
<line x1="1224.746" y1="1542.585" x2="1224.746" y2="775.254"/>
<line x1="1224.746" y1="1542.585" x2="1542.585" y2="1542.585"/>
<line x1="1224.746" y1="1542.585" x2="1383.665" y2="1158.919"/>
<line x1="1224.746" y1="1542.585" x2="1224.746" y2="1317.839"/>
<line x1="1224.746" y1="1542.585" x2="1383.665" y2="1701.504"/>
<line x1="1224.746" y1="1542.585" x2="1608.411" y2="1158.919"/>
<line x1="1224.746" y1="1542.585" x2="1767.331" y2="1542.585"/>
<line x1="682.161" y1="1000.000" x2="841.081" y2="1383.665"/>
<line x1="682.161" y1="1000.000" x2="298.496" y2="1383.665"/>
<line x1="682.161" y1="1000.000" x2="682.161" y2="1542.585"/>
<line x1="682.161" y1="1000.000" x2="682.161" y2="1224.746"/>
<line x1="682.161" y1="1000.000" x2="1065.827" y2="1383.665"/>
<line x1="682.161" y1="1000.000" x2="457.415" y2="775.254"/>
<line x1="682.161" y1="1000.000" x2="1224.746" y2="457.415"/>
<line x1="682.161" y1="1000.000" x2="457.415" y2="457.415"/>
<line x1="682.161" y1="1000.000" x2="1224.746" y2="775.254"/>
<line x1="682.161" y1="1000.000" x2="841.081" y2="616.335"/>
<line x1="682.161" y1="1000.000" x2="298.496" y2="616.335"/>
<line x1="682.161" y1="1000.000" x2="682.161" y2="775.254"/>
<line x1="682.161" y1="1000.000" x2="682.161" y2="457.415"/>
<line x1="682.161" y1="1000.000" x2="1065.827" y2="616.335"/>
<line x1="1000.000" y1="1767.331" x2="841.081" y2="1383.665"/>
<line x1="1000.000" y1="1767.331" x2="457.415" y2="1767.331"/>
<line x1="1000.000" y1="1767.331" x2="841.081" y2="1926.250"/>
<line x1="1000.000" y1="1767.331" x2="841.081" y2="1608.411"/>
<line x1="1000.000" y1="1767.331" x2="1224.746" y2="1767.331"/>
<line x1="1000.000" y1="1767.331" x2="775.254" y2="1542.585"/>
<line x1="1000.000" y1="1767.331" x2="1542.585" y2="1224.746"/>
<line x1="1000.000" y1="1767.331" x2="775.254" y2="1224.746"/>
<line x1="1000.000" y1="1767.331" x2="1542.585" y2="1542.585"/>
<line x1="1000.000" y1="1767.331" x2="1158.919" y2="1383.665"/>
<line x1="1000.000" y1="1767.331" x2="775.254" y2="1767.331"/>
<line x1="1000.000" y1="1767.331" x2="1158.919" y2="1926.250"/>
<line x1="1000.000" y1="1767.331" x2="1158.919" y2="1608.411"/>
<line x1="1000.000" y1="1767.331" x2="1542.585" y2="1767.331"/>
<line x1="841.081" y1="1383.665" x2="298.496" y2="1383.665"/>
<line x1="841.081" y1="1383.665" x2="841.081" y2="1926.250"/>
<line x1="841.081" y1="1383.665" x2="841.081" y2="1608.411"/>
<line x1="841.081" y1="1383.665" x2="1065.827" y2="1383.665"/>
<line x1="841.081" y1="1383.665" x2="616.335" y2="1158.919"/>
<line x1="841.081" y1="1383.665" x2="1383.665" y2="841.081"/>
<line x1="841.081" y1="1383.665" x2="616.335" y2="841.081"/>
<line x1="841.081" y1="1383.665" x2="1383.665" y2="1158.919"/>
<line x1="841.081" y1="1383.665" x2="841.081" y2="616.335"/>
<line x1="841.081" y1="1383.665" x2="1158.919" y2="1383.665"/>
<line x1="841.081" y1="1383.665" x2="457.415" y2="1000.000"/>
<line x1="841.081" y1="1383.665" x2="1000.000" y2="1542.585"/>
<line x1="841.081" y1="1383.665" x2="1000.000" y2="1224.746"/>
<line x1="841.081" y1="1383.665" x2="1224.746" y2="1000.000"/>
<line x1="841.081" y1="1383.665" x2="457.415" y2="1767.331"/>
<line x1="841.081" y1="1383.665" x2="682.161" y2="1542.585"/>
<line x1="841.081" y1="1383.665" x2="682.161" y2="1224.746"/>
<line x1="841.081" y1="1383.665" x2="1224.746" y2="1767.331"/>
<line x1="841.081" y1="1383.665" x2="616.335" y2="1383.665"/>
<line x1="841.081" y1="1383.665" x2="841.081" y2="1158.919"/>
<line x1="841.081" y1="1383.665" x2="841.081" y2="841.081"/>
<line x1="841.081" y1="1383.665" x2="1383.665" y2="1383.665"/>
<line x1="298.496" y1="1383.665" x2="457.415" y2="1767.331"/>
<line x1="298.496" y1="1383.665" x2="682.161" y2="1542.585"/>
<line x1="298.496" y1="1383.665" x2="841.081" y2="1926.250"/>
<line x1="298.496" y1="1383.665" x2="682.161" y2="1224.746"/>
<line x1="298.496" y1="1383.665" x2="841.081" y2="1608.411"/>
<line x1="298.496" y1="1383.665" x2="1065.827" y2="1383.665"/>
<line x1="298.496" y1="1383.665" x2="73.750" y2="1158.919"/>
<line x1="298.496" y1="1383.665" x2="73.750" y2="841.081"/>
<line x1="298.496" y1="1383.665" x2="298.496" y2="616.335"/>
<line x1="298.496" y1="1383.665" x2="457.415" y2="1000.000"/>
<line x1="298.496" y1="1383.665" x2="73.750" y2="1383.665"/>
<line x1="298.496" y1="1383.665" x2="298.496" y2="1158.919"/>
<line x1="298.496" y1="1383.665" x2="298.496" y2="841.081"/>
<line x1="457.415" y1="1767.331" x2="682.161" y2="1542.585"/>
<line x1="457.415" y1="1767.331" x2="841.081" y2="1926.250"/>
<line x1="457.415" y1="1767.331" x2="682.161" y2="1224.746"/>
<line x1="457.415" y1="1767.331" x2="841.081" y2="1608.411"/>
<line x1="457.415" y1="1767.331" x2="1224.746" y2="1767.331"/>
<line x1="457.415" y1="1767.331" x2="232.669" y2="1542.585"/>
<line x1="457.415" y1="1767.331" x2="232.669" y2="1224.746"/>
<line x1="457.415" y1="1767.331" x2="775.254" y2="1767.331"/>
<line x1="457.415" y1="1767.331" x2="616.335" y2="1383.665"/>
<line x1="457.415" y1="1767.331" x2="73.750" y2="1383.665"/>
<line x1="457.415" y1="1767.331" x2="616.335" y2="1926.250"/>
<line x1="457.415" y1="1767.331" x2="616.335" y2="1608.411"/>
<line x1="682.161" y1="1542.585" x2="841.081" y2="1926.250"/>
<line x1="682.161" y1="1542.585" x2="682.161" y2="1224.746"/>
<line x1="682.161" y1="1542.585" x2="1065.827" y2="1383.665"/>
<line x1="682.161" y1="1542.585" x2="1224.746" y2="1767.331"/>
<line x1="682.161" y1="1542.585" x2="457.415" y2="1317.839"/>
<line x1="682.161" y1="1542.585" x2="1224.746" y2="1317.839"/>
<line x1="682.161" y1="1542.585" x2="682.161" y2="775.254"/>
<line x1="682.161" y1="1542.585" x2="841.081" y2="1158.919"/>
<line x1="682.161" y1="1542.585" x2="298.496" y2="1158.919"/>
<line x1="682.161" y1="1542.585" x2="841.081" y2="1701.504"/>
<line x1="682.161" y1="1542.585" x2="1065.827" y2="1158.919"/>
<line x1="841.081" y1="1926.250" x2="841.081" y2="1608.411"/>
<line x1="841.081" y1="1926.250" x2="1065.827" y2="1383.665"/>
<line x1="841.081" y1="1926.250" x2="1224.746" y2="1767.331"/>
<line x1="841.081" y1="1926.250" x2="616.335" y2="1701.504"/>
<line x1="841.081" y1="1926.250" x2="1383.665" y2="1701.504"/>
<line x1="841.081" y1="1926.250" x2="1158.919" y2="1926.250"/>
<line x1="841.081" y1="1926.250" x2="1000.000" y2="1542.585"/>
<line x1="841.081" y1="1926.250" x2="616.335" y2="1926.250"/>
<line x1="841.081" y1="1926.250" x2="841.081" y2="1701.504"/>
<line x1="841.081" y1="1926.250" x2="1383.665" y2="1926.250"/>
<line x1="682.161" y1="1224.746" x2="841.081" y2="1608.411"/>
<line x1="682.161" y1="1224.746" x2="1065.827" y2="1383.665"/>
<line x1="682.161" y1="1224.746" x2="1224.746" y2="1767.331"/>
<line x1="682.161" y1="1224.746" x2="1224.746" y2="682.161"/>
<line x1="682.161" y1="1224.746" x2="457.415" y2="682.161"/>
<line x1="682.161" y1="1224.746" x2="682.161" y2="457.415"/>
<line x1="682.161" y1="1224.746" x2="841.081" y2="841.081"/>
<line x1="682.161" y1="1224.746" x2="298.496" y2="841.081"/>
<line x1="682.161" y1="1224.746" x2="841.081" y2="1065.827"/>
<line x1="682.161" y1="1224.746" x2="1065.827" y2="841.081"/>
<line x1="841.081" y1="1608.411" x2="1065.827" y2="1383.665"/>
<line x1="841.081" y1="1608.411" x2="1224.746" y2="1767.331"/>
<line x1="841.081" y1="1608.411" x2="1383.665" y2="1065.827"/>
<line x1="841.081" y1="1608.411" x2="616.335" y2="1065.827"/>
<line x1="841.081" y1="1608.411" x2="1158.919" y2="1608.411"/>
<line x1="841.081" y1="1608.411" x2="1000.000" y2="1224.746"/>
<line x1="841.081" y1="1608.411" x2="616.335" y2="1608.411"/>
<line x1="841.081" y1="1608.411" x2="841.081" y2="1065.827"/>
<line x1="841.081" y1="1608.411" x2="1383.665" y2="1608.411"/>
<line x1="1065.827" y1="1383.665" x2="1224.746" y2="1767.331"/>
<line x1="1065.827" y1="1383.665" x2="1608.411" y2="841.081"/>
<line x1="1065.827" y1="1383.665" x2="1608.411" y2="1158.919"/>
<line x1="1065.827" y1="1383.665" x2="1065.827" y2="616.335"/>
<line x1="1065.827" y1="1383.665" x2="1224.746" y2="1000.000"/>
<line x1="1065.827" y1="1383.665" x2="1065.827" y2="1158.919"/>
<line x1="1065.827" y1="1383.665" x2="1065.827" y2="841.081"/>
<line x1="1065.827" y1="1383.665" x2="1608.411" y2="1383.665"/>
<line x1="1224.746" y1="1767.331" x2="1767.331" y2="1224.746"/>
<line x1="1224.746" y1="1767.331" x2="1767.331" y2="1542.585"/>
<line x1="1224.746" y1="1767.331" x2="1542.585" y2="1767.331"/>
<line x1="1224.746" y1="1767.331" x2="1383.665" y2="1383.665"/>
<line x1="1224.746" y1="1767.331" x2="1383.665" y2="1926.250"/>
<line x1="1224.746" y1="1767.331" x2="1383.665" y2="1608.411"/>
<line x1="1224.746" y1="1767.331" x2="1608.411" y2="1383.665"/>
<line x1="775.254" y1="775.254" x2="775.254" y2="457.415"/>
<line x1="775.254" y1="775.254" x2="1542.585" y2="775.254"/>
<line x1="775.254" y1="775.254" x2="1000.000" y2="232.669"/>
<line x1="775.254" y1="775.254" x2="1317.839" y2="1000.000"/>
<line x1="775.254" y1="775.254" x2="1158.919" y2="616.335"/>
<line x1="775.254" y1="775.254" x2="775.254" y2="232.669"/>
<line x1="775.254" y1="775.254" x2="934.173" y2="616.335"/>
<line x1="775.254" y1="775.254" x2="1158.919" y2="391.589"/>
<line x1="775.254" y1="775.254" x2="1317.839" y2="775.254"/>
<line x1="775.254" y1="775.254" x2="232.669" y2="1000.000"/>
<line x1="775.254" y1="775.254" x2="1000.000" y2="1317.839"/>
<line x1="775.254" y1="775.254" x2="457.415" y2="775.254"/>
<line x1="775.254" y1="775.254" x2="775.254" y2="1542.585"/>
<line x1="775.254" y1="775.254" x2="616.335" y2="1158.919"/>
<line x1="775.254" y1="775.254" x2="232.669" y2="775.254"/>
<line x1="775.254" y1="775.254" x2="391.589" y2="1158.919"/>
<line x1="775.254" y1="775.254" x2="616.335" y2="934.173"/>
<line x1="775.254" y1="775.254" x2="775.254" y2="1317.839"/>
<line x1="1542.585" y1="457.415" x2="775.254" y2="457.415"/>
<line x1="1542.585" y1="457.415" x2="1542.585" y2="775.254"/>
<line x1="1542.585" y1="457.415" x2="1000.000" y2="232.669"/>
<line x1="1542.585" y1="457.415" x2="1317.839" y2="1000.000"/>
<line x1="1542.585" y1="457.415" x2="1158.919" y2="616.335"/>
<line x1="1542.585" y1="457.415" x2="1158.919" y2="73.750"/>
<line x1="1542.585" y1="457.415" x2="1317.839" y2="457.415"/>
<line x1="1542.585" y1="457.415" x2="1542.585" y2="232.669"/>
<line x1="1542.585" y1="457.415" x2="1701.504" y2="616.335"/>
<line x1="1542.585" y1="457.415" x2="1000.000" y2="682.161"/>
<line x1="1542.585" y1="457.415" x2="1767.331" y2="1000.000"/>
<line x1="1542.585" y1="457.415" x2="1224.746" y2="457.415"/>
<line x1="1542.585" y1="457.415" x2="1542.585" y2="1224.746"/>
<line x1="1542.585" y1="457.415" x2="1383.665" y2="841.081"/>
<line x1="1542.585" y1="457.415" x2="1383.665" y2="298.496"/>
<line x1="1542.585" y1="457.415" x2="1542.585" y2="682.161"/>
<line x1="1542.585" y1="457.415" x2="1767.331" y2="457.415"/>
<line x1="1542.585" y1="457.415" x2="1926.250" y2="841.081"/>
<line x1="775.254" y1="457.415" x2="1000.000" y2="232.669"/>
<line x1="775.254" y1="457.415" x2="1317.839" y2="1000.000"/>
<line x1="775.254" y1="457.415" x2="1158.919" y2="616.335"/>
<line x1="775.254" y1="457.415" x2="775.254" y2="232.669"/>
<line x1="775.254" y1="457.415" x2="934.173" y2="616.335"/>
<line x1="775.254" y1="457.415" x2="1158.919" y2="73.750"/>
<line x1="775.254" y1="457.415" x2="1317.839" y2="457.415"/>
<line x1="775.254" y1="457.415" x2="232.669" y2="1000.000"/>
<line x1="775.254" y1="457.415" x2="1000.000" y2="682.161"/>
<line x1="775.254" y1="457.415" x2="457.415" y2="457.415"/>
<line x1="775.254" y1="457.415" x2="775.254" y2="1224.746"/>
<line x1="775.254" y1="457.415" x2="616.335" y2="841.081"/>
<line x1="775.254" y1="457.415" x2="232.669" y2="457.415"/>
<line x1="775.254" y1="457.415" x2="391.589" y2="841.081"/>
<line x1="775.254" y1="457.415" x2="616.335" y2="298.496"/>
<line x1="775.254" y1="457.415" x2="775.254" y2="682.161"/>
<line x1="1542.585" y1="775.254" x2="1000.000" y2="232.669"/>
<line x1="1542.585" y1="775.254" x2="1317.839" y2="1000.000"/>
<line x1="1542.585" y1="775.254" x2="1158.919" y2="616.335"/>
<line x1="1542.585" y1="775.254" x2="1158.919" y2="391.589"/>
<line x1="1542.585" y1="775.254" x2="1317.839" y2="775.254"/>
<line x1="1542.585" y1="775.254" x2="1542.585" y2="232.669"/>
<line x1="1542.585" y1="775.254" x2="1701.504" y2="616.335"/>
<line x1="1542.585" y1="775.254" x2="1000.000" y2="1317.839"/>
<line x1="1542.585" y1="775.254" x2="1767.331" y2="1000.000"/>
<line x1="1542.585" y1="775.254" x2="1224.746" y2="775.254"/>
<line x1="1542.585" y1="775.254" x2="1542.585" y2="1542.585"/>
<line x1="1542.585" y1="775.254" x2="1383.665" y2="1158.919"/>
<line x1="1542.585" y1="775.254" x2="1383.665" y2="934.173"/>
<line x1="1542.585" y1="775.254" x2="1542.585" y2="1317.839"/>
<line x1="1542.585" y1="775.254" x2="1767.331" y2="775.254"/>
<line x1="1542.585" y1="775.254" x2="1926.250" y2="1158.919"/>
<line x1="1000.000" y1="232.669" x2="1158.919" y2="616.335"/>
<line x1="1000.000" y1="232.669" x2="775.254" y2="232.669"/>
<line x1="1000.000" y1="232.669" x2="1158.919" y2="391.589"/>
<line x1="1000.000" y1="232.669" x2="1158.919" y2="73.750"/>
<line x1="1000.000" y1="232.669" x2="1542.585" y2="232.669"/>
<line x1="1000.000" y1="232.669" x2="457.415" y2="775.254"/>
<line x1="1000.000" y1="232.669" x2="1224.746" y2="457.415"/>
<line x1="1000.000" y1="232.669" x2="457.415" y2="457.415"/>
<line x1="1000.000" y1="232.669" x2="1224.746" y2="775.254"/>
<line x1="1000.000" y1="232.669" x2="841.081" y2="616.335"/>
<line x1="1000.000" y1="232.669" x2="457.415" y2="232.669"/>
<line x1="1000.000" y1="232.669" x2="841.081" y2="391.589"/>
<line x1="1000.000" y1="232.669" x2="841.081" y2="73.750"/>
<line x1="1000.000" y1="232.669" x2="1224.746" y2="232.669"/>
<line x1="1317.839" y1="1000.000" x2="1158.919" y2="616.335"/>
<line x1="1317.839" y1="1000.000" x2="934.173" y2="616.335"/>
<line x1="1317.839" y1="1000.000" x2="1317.839" y2="775.254"/>
<line x1="1317.839" y1="1000.000" x2="1317.839" y2="457.415"/>
<line x1="1317.839" y1="1000.000" x2="1701.504" y2="616.335"/>
<line x1="1317.839" y1="1000.000" x2="775.254" y2="1542.585"/>
<line x1="1317.839" y1="1000.000" x2="1542.585" y2="1224.746"/>
<line x1="1317.839" y1="1000.000" x2="775.254" y2="1224.746"/>
<line x1="1317.839" y1="1000.000" x2="1542.585" y2="1542.585"/>
<line x1="1317.839" y1="1000.000" x2="1158.919" y2="1383.665"/>
<line x1="1317.839" y1="1000.000" x2="934.173" y2="1383.665"/>
<line x1="1317.839" y1="1000.000" x2="1317.839" y2="1542.585"/>
<line x1="1317.839" y1="1000.000" x2="1317.839" y2="1224.746"/>
<line x1="1317.839" y1="1000.000" x2="1701.504" y2="1383.665"/>
<line x1="1158.919" y1="616.335" x2="934.173" y2="616.335"/>
<line x1="1158.919" y1="616.335" x2="1158.919" y2="391.589"/>
<line x1="1158.919" y1="616.335" x2="1158.919" y2="73.750"/>
<line x1="1158.919" y1="616.335" x2="1701.504" y2="616.335"/>
<line x1="1158.919" y1="616.335" x2="616.335" y2="1158.919"/>
<line x1="1158.919" y1="616.335" x2="1383.665" y2="841.081"/>
<line x1="1158.919" y1="616.335" x2="616.335" y2="841.081"/>
<line x1="1158.919" y1="616.335" x2="1383.665" y2="1158.919"/>
<line x1="1158.919" y1="616.335" x2="841.081" y2="616.335"/>
<line x1="1158.919" y1="616.335" x2="1158.919" y2="1383.665"/>
<line x1="1158.919" y1="616.335" x2="775.254" y2="1000.000"/>
<line x1="1158.919" y1="616.335" x2="1000.000" y2="775.254"/>
<line x1="1158.919" y1="616.335" x2="1000.000" y2="457.415"/>
<line x1="1158.919" y1="616.335" x2="1542.585" y2="1000.000"/>
<line x1="1158.919" y1="616.335" x2="775.254" y2="232.669"/>
<line x1="1158.919" y1="616.335" x2="1317.839" y2="775.254"/>
<line x1="1158.919" y1="616.335" x2="1317.839" y2="457.415"/>
<line x1="1158.919" y1="616.335" x2="1542.585" y2="232.669"/>
<line x1="1158.919" y1="616.335" x2="616.335" y2="616.335"/>
<line x1="1158.919" y1="616.335" x2="1158.919" y2="1158.919"/>
<line x1="1158.919" y1="616.335" x2="1158.919" y2="841.081"/>
<line x1="1158.919" y1="616.335" x2="1383.665" y2="616.335"/>
<line x1="775.254" y1="232.669" x2="934.173" y2="616.335"/>
<line x1="775.254" y1="232.669" x2="1158.919" y2="391.589"/>
<line x1="775.254" y1="232.669" x2="1317.839" y2="775.254"/>
<line x1="775.254" y1="232.669" x2="1158.919" y2="73.750"/>
<line x1="775.254" y1="232.669" x2="1317.839" y2="457.415"/>
<line x1="775.254" y1="232.669" x2="1542.585" y2="232.669"/>
<line x1="775.254" y1="232.669" x2="232.669" y2="775.254"/>
<line x1="775.254" y1="232.669" x2="232.669" y2="457.415"/>
<line x1="775.254" y1="232.669" x2="457.415" y2="232.669"/>
<line x1="775.254" y1="232.669" x2="616.335" y2="616.335"/>
<line x1="775.254" y1="232.669" x2="391.589" y2="616.335"/>
<line x1="775.254" y1="232.669" x2="616.335" y2="391.589"/>
<line x1="775.254" y1="232.669" x2="616.335" y2="73.750"/>
<line x1="934.173" y1="616.335" x2="1158.919" y2="391.589"/>
<line x1="934.173" y1="616.335" x2="1317.839" y2="775.254"/>
<line x1="934.173" y1="616.335" x2="1158.919" y2="73.750"/>
<line x1="934.173" y1="616.335" x2="1317.839" y2="457.415"/>
<line x1="934.173" y1="616.335" x2="1701.504" y2="616.335"/>
<line x1="934.173" y1="616.335" x2="391.589" y2="1158.919"/>
<line x1="934.173" y1="616.335" x2="391.589" y2="841.081"/>
<line x1="934.173" y1="616.335" x2="934.173" y2="1383.665"/>
<line x1="934.173" y1="616.335" x2="775.254" y2="1000.000"/>
<line x1="934.173" y1="616.335" x2="391.589" y2="616.335"/>
<line x1="934.173" y1="616.335" x2="934.173" y2="1158.919"/>
<line x1="934.173" y1="616.335" x2="934.173" y2="841.081"/>
<line x1="1158.919" y1="391.589" x2="1317.839" y2="775.254"/>
<line x1="1158.919" y1="391.589" x2="1158.919" y2="73.750"/>
<line x1="1158.919" y1="391.589" x2="1542.585" y2="232.669"/>
<line x1="1158.919" y1="391.589" x2="1701.504" y2="616.335"/>
<line x1="1158.919" y1="391.589" x2="616.335" y2="934.173"/>
<line x1="1158.919" y1="391.589" x2="1383.665" y2="934.173"/>
<line x1="1158.919" y1="391.589" x2="841.081" y2="391.589"/>
<line x1="1158.919" y1="391.589" x2="1000.000" y2="775.254"/>
<line x1="1158.919" y1="391.589" x2="616.335" y2="391.589"/>
<line x1="1158.919" y1="391.589" x2="1158.919" y2="934.173"/>
<line x1="1158.919" y1="391.589" x2="1383.665" y2="391.589"/>
<line x1="1317.839" y1="775.254" x2="1317.839" y2="457.415"/>
<line x1="1317.839" y1="775.254" x2="1542.585" y2="232.669"/>
<line x1="1317.839" y1="775.254" x2="1701.504" y2="616.335"/>
<line x1="1317.839" y1="775.254" x2="775.254" y2="1317.839"/>
<line x1="1317.839" y1="775.254" x2="1542.585" y2="1317.839"/>
<line x1="1317.839" y1="775.254" x2="1317.839" y2="1542.585"/>
<line x1="1317.839" y1="775.254" x2="1158.919" y2="1158.919"/>
<line x1="1317.839" y1="775.254" x2="934.173" y2="1158.919"/>
<line x1="1317.839" y1="775.254" x2="1158.919" y2="934.173"/>
<line x1="1317.839" y1="775.254" x2="1701.504" y2="1158.919"/>
<line x1="1158.919" y1="73.750" x2="1317.839" y2="457.415"/>
<line x1="1158.919" y1="73.750" x2="1542.585" y2="232.669"/>
<line x1="1158.919" y1="73.750" x2="1701.504" y2="616.335"/>
<line x1="1158.919" y1="73.750" x2="1383.665" y2="298.496"/>
<line x1="1158.919" y1="73.750" x2="616.335" y2="298.496"/>
<line x1="1158.919" y1="73.750" x2="841.081" y2="73.750"/>
<line x1="1158.919" y1="73.750" x2="1000.000" y2="457.415"/>
<line x1="1158.919" y1="73.750" x2="616.335" y2="73.750"/>
<line x1="1158.919" y1="73.750" x2="1158.919" y2="298.496"/>
<line x1="1158.919" y1="73.750" x2="1383.665" y2="73.750"/>
<line x1="1317.839" y1="457.415" x2="1542.585" y2="232.669"/>
<line x1="1317.839" y1="457.415" x2="1701.504" y2="616.335"/>
<line x1="1317.839" y1="457.415" x2="1542.585" y2="682.161"/>
<line x1="1317.839" y1="457.415" x2="775.254" y2="682.161"/>
<line x1="1317.839" y1="457.415" x2="1317.839" y2="1224.746"/>
<line x1="1317.839" y1="457.415" x2="1158.919" y2="841.081"/>
<line x1="1317.839" y1="457.415" x2="934.173" y2="841.081"/>
<line x1="1317.839" y1="457.415" x2="1158.919" y2="298.496"/>
<line x1="1317.839" y1="457.415" x2="1701.504" y2="841.081"/>
<line x1="1542.585" y1="232.669" x2="1701.504" y2="616.335"/>
<line x1="1542.585" y1="232.669" x2="1767.331" y2="457.415"/>
<line x1="1542.585" y1="232.669" x2="1767.331" y2="775.254"/>
<line x1="1542.585" y1="232.669" x2="1224.746" y2="232.669"/>
<line x1="1542.585" y1="232.669" x2="1383.665" y2="616.335"/>
<line x1="1542.585" y1="232.669" x2="1383.665" y2="391.589"/>
<line x1="1542.585" y1="232.669" x2="1383.665" y2="73.750"/>
<line x1="1542.585" y1="232.669" x2="1926.250" y2="616.335"/>
<line x1="1701.504" y1="616.335" x2="1926.250" y2="841.081"/>
<line x1="1701.504" y1="616.335" x2="1926.250" y2="1158.919"/>
<line x1="1701.504" y1="616.335" x2="1701.504" y2="1383.665"/>
<line x1="1701.504" y1="616.335" x2="1542.585" y2="1000.000"/>
<line x1="1701.504" y1="616.335" x2="1701.504" y2="1158.919"/>
<line x1="1701.504" y1="616.335" x2="1701.504" y2="841.081"/>
<line x1="1701.504" y1="616.335" x2="1926.250" y2="616.335"/>
<line x1="232.669" y1="1000.000" x2="457.415" y2="775.254"/>
<line x1="232.669" y1="1000.000" x2="775.254" y2="1542.585"/>
<line x1="232.669" y1="1000.000" x2="616.335" y2="1158.919"/>
<line x1="232.669" y1="1000.000" x2="73.750" y2="1158.919"/>
<line x1="232.669" y1="1000.000" x2="232.669" y2="1542.585"/>
<line x1="232.669" y1="1000.000" x2="232.669" y2="775.254"/>
<line x1="232.669" y1="1000.000" x2="391.589" y2="1158.919"/>
<line x1="232.669" y1="1000.000" x2="457.415" y2="457.415"/>
<line x1="232.669" y1="1000.000" x2="775.254" y2="1224.746"/>
<line x1="232.669" y1="1000.000" x2="616.335" y2="841.081"/>
<line x1="232.669" y1="1000.000" x2="73.750" y2="841.081"/>
<line x1="232.669" y1="1000.000" x2="232.669" y2="1224.746"/>
<line x1="232.669" y1="1000.000" x2="232.669" y2="457.415"/>
<line x1="232.669" y1="1000.000" x2="391.589" y2="841.081"/>
<line x1="1000.000" y1="1317.839" x2="457.415" y2="775.254"/>
<line x1="1000.000" y1="1317.839" x2="775.254" y2="1542.585"/>
<line x1="1000.000" y1="1317.839" x2="616.335" y2="1158.919"/>
<line x1="1000.000" y1="1317.839" x2="457.415" y2="1317.839"/>
<line x1="1000.000" y1="1317.839" x2="616.335" y2="1701.504"/>
<line x1="1000.000" y1="1317.839" x2="616.335" y2="934.173"/>
<line x1="1000.000" y1="1317.839" x2="775.254" y2="1317.839"/>
<line x1="1000.000" y1="1317.839" x2="1224.746" y2="775.254"/>
<line x1="1000.000" y1="1317.839" x2="1542.585" y2="1542.585"/>
<line x1="1000.000" y1="1317.839" x2="1383.665" y2="1158.919"/>
<line x1="1000.000" y1="1317.839" x2="1224.746" y2="1317.839"/>
<line x1="1000.000" y1="1317.839" x2="1383.665" y2="1701.504"/>
<line x1="1000.000" y1="1317.839" x2="1383.665" y2="934.173"/>
<line x1="1000.000" y1="1317.839" x2="1542.585" y2="1317.839"/>
<line x1="457.415" y1="775.254" x2="616.335" y2="1158.919"/>
<line x1="457.415" y1="775.254" x2="73.750" y2="1158.919"/>
<line x1="457.415" y1="775.254" x2="457.415" y2="1317.839"/>
<line x1="457.415" y1="775.254" x2="232.669" y2="775.254"/>
<line x1="457.415" y1="775.254" x2="616.335" y2="934.173"/>
<line x1="457.415" y1="775.254" x2="457.415" y2="457.415"/>
<line x1="457.415" y1="775.254" x2="1224.746" y2="775.254"/>
<line x1="457.415" y1="775.254" x2="841.081" y2="616.335"/>
<line x1="457.415" y1="775.254" x2="298.496" y2="616.335"/>
<line x1="457.415" y1="775.254" x2="682.161" y2="775.254"/>
<line x1="457.415" y1="775.254" x2="457.415" y2="232.669"/>
<line x1="457.415" y1="775.254" x2="841.081" y2="391.589"/>
<line x1="775.254" y1="1542.585" x2="616.335" y2="1158.919"/>
<line x1="775.254" y1="1542.585" x2="232.669" y2="1542.585"/>
<line x1="775.254" y1="1542.585" x2="616.335" y2="1701.504"/>
<line x1="775.254" y1="1542.585" x2="391.589" y2="1158.919"/>
<line x1="775.254" y1="1542.585" x2="775.254" y2="1317.839"/>
<line x1="775.254" y1="1542.585" x2="775.254" y2="1224.746"/>
<line x1="775.254" y1="1542.585" x2="1542.585" y2="1542.585"/>
<line x1="775.254" y1="1542.585" x2="1158.919" y2="1383.665"/>
<line x1="775.254" y1="1542.585" x2="775.254" y2="1767.331"/>
<line x1="775.254" y1="1542.585" x2="1158.919" y2="1926.250"/>
<line x1="775.254" y1="1542.585" x2="934.173" y2="1383.665"/>
<line x1="775.254" y1="1542.585" x2="1317.839" y2="1542.585"/>
<line x1="616.335" y1="1158.919" x2="73.750" y2="1158.919"/>
<line x1="616.335" y1="1158.919" x2="616.335" y2="1701.504"/>
<line x1="616.335" y1="1158.919" x2="391.589" y2="1158.919"/>
<line x1="616.335" y1="1158.919" x2="616.335" y2="934.173"/>
<line x1="616.335" y1="1158.919" x2="616.335" y2="841.081"/>
<line x1="616.335" y1="1158.919" x2="1383.665" y2="1158.919"/>
<line x1="616.335" y1="1158.919" x2="841.081" y2="616.335"/>
<line x1="616.335" y1="1158.919" x2="1158.919" y2="1383.665"/>
<line x1="616.335" y1="1158.919" x2="457.415" y2="1000.000"/>
<line x1="616.335" y1="1158.919" x2="1000.000" y2="1542.585"/>
<line x1="616.335" y1="1158.919" x2="775.254" y2="1000.000"/>
<line x1="616.335" y1="1158.919" x2="1000.000" y2="775.254"/>
<line x1="616.335" y1="1158.919" x2="232.669" y2="1542.585"/>
<line x1="616.335" y1="1158.919" x2="457.415" y2="1317.839"/>
<line x1="616.335" y1="1158.919" x2="232.669" y2="775.254"/>
<line x1="616.335" y1="1158.919" x2="775.254" y2="1317.839"/>
<line x1="616.335" y1="1158.919" x2="616.335" y2="1383.665"/>
<line x1="616.335" y1="1158.919" x2="841.081" y2="1158.919"/>
<line x1="616.335" y1="1158.919" x2="616.335" y2="616.335"/>
<line x1="616.335" y1="1158.919" x2="1158.919" y2="1158.919"/>
<line x1="73.750" y1="1158.919" x2="232.669" y2="1542.585"/>
<line x1="73.750" y1="1158.919" x2="457.415" y2="1317.839"/>
<line x1="73.750" y1="1158.919" x2="616.335" y2="1701.504"/>
<line x1="73.750" y1="1158.919" x2="232.669" y2="775.254"/>
<line x1="73.750" y1="1158.919" x2="391.589" y2="1158.919"/>
<line x1="73.750" y1="1158.919" x2="616.335" y2="934.173"/>
<line x1="73.750" y1="1158.919" x2="73.750" y2="841.081"/>
<line x1="73.750" y1="1158.919" x2="298.496" y2="616.335"/>
<line x1="73.750" y1="1158.919" x2="457.415" y2="1000.000"/>
<line x1="73.750" y1="1158.919" x2="73.750" y2="1383.665"/>
<line x1="73.750" y1="1158.919" x2="298.496" y2="1158.919"/>
<line x1="73.750" y1="1158.919" x2="73.750" y2="616.335"/>
<line x1="232.669" y1="1542.585" x2="457.415" y2="1317.839"/>
<line x1="232.669" y1="1542.585" x2="616.335" y2="1701.504"/>
<line x1="232.669" y1="1542.585" x2="232.669" y2="775.254"/>
<line x1="232.669" y1="1542.585" x2="391.589" y2="1158.919"/>
<line x1="232.669" y1="1542.585" x2="775.254" y2="1317.839"/>
<line x1="232.669" y1="1542.585" x2="232.669" y2="1224.746"/>
<line x1="232.669" y1="1542.585" x2="775.254" y2="1767.331"/>
<line x1="232.669" y1="1542.585" x2="616.335" y2="1383.665"/>
<line x1="232.669" y1="1542.585" x2="73.750" y2="1383.665"/>
<line x1="232.669" y1="1542.585" x2="616.335" y2="1926.250"/>
<line x1="232.669" y1="1542.585" x2="391.589" y2="1383.665"/>
<line x1="457.415" y1="1317.839" x2="616.335" y2="1701.504"/>
<line x1="457.415" y1="1317.839" x2="232.669" y2="775.254"/>
<line x1="457.415" y1="1317.839" x2="616.335" y2="934.173"/>
<line x1="457.415" y1="1317.839" x2="775.254" y2="1317.839"/>
<line x1="457.415" y1="1317.839" x2="1224.746" y2="1317.839"/>
<line x1="457.415" y1="1317.839" x2="682.161" y2="775.254"/>
<line x1="457.415" y1="1317.839" x2="841.081" y2="1158.919"/>
<line x1="457.415" y1="1317.839" x2="298.496" y2="1158.919"/>
<line x1="457.415" y1="1317.839" x2="841.081" y2="1701.504"/>
<line x1="457.415" y1="1317.839" x2="841.081" y2="934.173"/>
<line x1="616.335" y1="1701.504" x2="391.589" y2="1158.919"/>
<line x1="616.335" y1="1701.504" x2="616.335" y2="934.173"/>
<line x1="616.335" y1="1701.504" x2="775.254" y2="1317.839"/>
<line x1="616.335" y1="1701.504" x2="1383.665" y2="1701.504"/>
<line x1="616.335" y1="1701.504" x2="1158.919" y2="1926.250"/>
<line x1="616.335" y1="1701.504" x2="1000.000" y2="1542.585"/>
<line x1="616.335" y1="1701.504" x2="616.335" y2="1926.250"/>
<line x1="616.335" y1="1701.504" x2="841.081" y2="1701.504"/>
<line x1="616.335" y1="1701.504" x2="1158.919" y2="1701.504"/>
<line x1="232.669" y1="775.254" x2="391.589" y2="1158.919"/>
<line x1="232.669" y1="775.254" x2="616.335" y2="934.173"/>
<line x1="232.669" y1="775.254" x2="775.254" y2="1317.839"/>
<line x1="232.669" y1="775.254" x2="232.669" y2="457.415"/>
<line x1="232.669" y1="775.254" x2="457.415" y2="232.669"/>
<line x1="232.669" y1="775.254" x2="616.335" y2="616.335"/>
<line x1="232.669" y1="775.254" x2="73.750" y2="616.335"/>
<line x1="232.669" y1="775.254" x2="391.589" y2="616.335"/>
<line x1="232.669" y1="775.254" x2="616.335" y2="391.589"/>
<line x1="391.589" y1="1158.919" x2="616.335" y2="934.173"/>
<line x1="391.589" y1="1158.919" x2="775.254" y2="1317.839"/>
<line x1="391.589" y1="1158.919" x2="391.589" y2="841.081"/>
<line x1="391.589" y1="1158.919" x2="934.173" y2="1383.665"/>
<line x1="391.589" y1="1158.919" x2="775.254" y2="1000.000"/>
<line x1="391.589" y1="1158.919" x2="391.589" y2="1383.665"/>
<line x1="391.589" y1="1158.919" x2="391.589" y2="616.335"/>
<line x1="391.589" y1="1158.919" x2="934.173" y2="1158.919"/>
<line x1="616.335" y1="934.173" x2="775.254" y2="1317.839"/>
<line x1="616.335" y1="934.173" x2="1383.665" y2="934.173"/>
<line x1="616.335" y1="934.173" x2="841.081" y2="391.589"/>
<line x1="616.335" y1="934.173" x2="1000.000" y2="775.254"/>
<line x1="616.335" y1="934.173" x2="841.081" y2="934.173"/>
<line x1="616.335" y1="934.173" x2="616.335" y2="391.589"/>
<line x1="616.335" y1="934.173" x2="1158.919" y2="934.173"/>
<line x1="775.254" y1="1317.839" x2="1542.585" y2="1317.839"/>
<line x1="775.254" y1="1317.839" x2="1317.839" y2="1542.585"/>
<line x1="775.254" y1="1317.839" x2="1158.919" y2="1158.919"/>
<line x1="775.254" y1="1317.839" x2="1158.919" y2="1701.504"/>
<line x1="775.254" y1="1317.839" x2="934.173" y2="1158.919"/>
<line x1="775.254" y1="1317.839" x2="1158.919" y2="934.173"/>
<line x1="1000.000" y1="682.161" x2="1224.746" y2="457.415"/>
<line x1="1000.000" y1="682.161" x2="1542.585" y2="1224.746"/>
<line x1="1000.000" y1="682.161" x2="1383.665" y2="841.081"/>
<line x1="1000.000" y1="682.161" x2="1224.746" y2="682.161"/>
<line x1="1000.000" y1="682.161" x2="1383.665" y2="1065.827"/>
<line x1="1000.000" y1="682.161" x2="1383.665" y2="298.496"/>
<line x1="1000.000" y1="682.161" x2="1542.585" y2="682.161"/>
<line x1="1000.000" y1="682.161" x2="457.415" y2="457.415"/>
<line x1="1000.000" y1="682.161" x2="775.254" y2="1224.746"/>
<line x1="1000.000" y1="682.161" x2="616.335" y2="841.081"/>
<line x1="1000.000" y1="682.161" x2="457.415" y2="682.161"/>
<line x1="1000.000" y1="682.161" x2="616.335" y2="1065.827"/>
<line x1="1000.000" y1="682.161" x2="616.335" y2="298.496"/>
<line x1="1000.000" y1="682.161" x2="775.254" y2="682.161"/>
<line x1="1767.331" y1="1000.000" x2="1224.746" y2="457.415"/>
<line x1="1767.331" y1="1000.000" x2="1542.585" y2="1224.746"/>
<line x1="1767.331" y1="1000.000" x2="1383.665" y2="841.081"/>
<line x1="1767.331" y1="1000.000" x2="1608.411" y2="841.081"/>
<line x1="1767.331" y1="1000.000" x2="1767.331" y2="1224.746"/>
<line x1="1767.331" y1="1000.000" x2="1767.331" y2="457.415"/>
<line x1="1767.331" y1="1000.000" x2="1926.250" y2="841.081"/>
<line x1="1767.331" y1="1000.000" x2="1224.746" y2="775.254"/>
<line x1="1767.331" y1="1000.000" x2="1542.585" y2="1542.585"/>
<line x1="1767.331" y1="1000.000" x2="1383.665" y2="1158.919"/>
<line x1="1767.331" y1="1000.000" x2="1608.411" y2="1158.919"/>
<line x1="1767.331" y1="1000.000" x2="1767.331" y2="1542.585"/>
<line x1="1767.331" y1="1000.000" x2="1767.331" y2="775.254"/>
<line x1="1767.331" y1="1000.000" x2="1926.250" y2="1158.919"/>
<line x1="1224.746" y1="457.415" x2="1383.665" y2="841.081"/>
<line x1="1224.746" y1="457.415" x2="1224.746" y2="682.161"/>
<line x1="1224.746" y1="457.415" x2="1608.411" y2="841.081"/>
<line x1="1224.746" y1="457.415" x2="1383.665" y2="298.496"/>
<line x1="1224.746" y1="457.415" x2="1767.331" y2="457.415"/>
<line x1="1224.746" y1="457.415" x2="457.415" y2="457.415"/>
<line x1="1224.746" y1="457.415" x2="1224.746" y2="775.254"/>
<line x1="1224.746" y1="457.415" x2="841.081" y2="616.335"/>
<line x1="1224.746" y1="457.415" x2="682.161" y2="457.415"/>
<line x1="1224.746" y1="457.415" x2="1065.827" y2="616.335"/>
<line x1="1224.746" y1="457.415" x2="841.081" y2="73.750"/>
<line x1="1224.746" y1="457.415" x2="1224.746" y2="232.669"/>
<line x1="1542.585" y1="1224.746" x2="1383.665" y2="841.081"/>
<line x1="1542.585" y1="1224.746" x2="1383.665" y2="1065.827"/>
<line x1="1542.585" y1="1224.746" x2="1767.331" y2="1224.746"/>
<line x1="1542.585" y1="1224.746" x2="1542.585" y2="682.161"/>
<line x1="1542.585" y1="1224.746" x2="1926.250" y2="841.081"/>
<line x1="1542.585" y1="1224.746" x2="775.254" y2="1224.746"/>
<line x1="1542.585" y1="1224.746" x2="1542.585" y2="1542.585"/>
<line x1="1542.585" y1="1224.746" x2="1158.919" y2="1383.665"/>
<line x1="1542.585" y1="1224.746" x2="1158.919" y2="1608.411"/>
<line x1="1542.585" y1="1224.746" x2="1542.585" y2="1767.331"/>
<line x1="1542.585" y1="1224.746" x2="1317.839" y2="1224.746"/>
<line x1="1542.585" y1="1224.746" x2="1701.504" y2="1383.665"/>
<line x1="1383.665" y1="841.081" x2="1383.665" y2="1065.827"/>
<line x1="1383.665" y1="841.081" x2="1608.411" y2="841.081"/>
<line x1="1383.665" y1="841.081" x2="1383.665" y2="298.496"/>
<line x1="1383.665" y1="841.081" x2="1926.250" y2="841.081"/>
<line x1="1383.665" y1="841.081" x2="616.335" y2="841.081"/>
<line x1="1383.665" y1="841.081" x2="1383.665" y2="1158.919"/>
<line x1="1383.665" y1="841.081" x2="841.081" y2="616.335"/>
<line x1="1383.665" y1="841.081" x2="1158.919" y2="1383.665"/>
<line x1="1383.665" y1="841.081" x2="1000.000" y2="1224.746"/>
<line x1="1383.665" y1="841.081" x2="1224.746" y2="1000.000"/>
<line x1="1383.665" y1="841.081" x2="1000.000" y2="457.415"/>
<line x1="1383.665" y1="841.081" x2="1542.585" y2="1000.000"/>
<line x1="1383.665" y1="841.081" x2="1224.746" y2="682.161"/>
<line x1="1383.665" y1="841.081" x2="1767.331" y2="1224.746"/>
<line x1="1383.665" y1="841.081" x2="1542.585" y2="682.161"/>
<line x1="1383.665" y1="841.081" x2="1767.331" y2="457.415"/>
<line x1="1383.665" y1="841.081" x2="841.081" y2="841.081"/>
<line x1="1383.665" y1="841.081" x2="1383.665" y2="1383.665"/>
<line x1="1383.665" y1="841.081" x2="1158.919" y2="841.081"/>
<line x1="1383.665" y1="841.081" x2="1383.665" y2="616.335"/>
<line x1="1224.746" y1="682.161" x2="1383.665" y2="1065.827"/>
<line x1="1224.746" y1="682.161" x2="1608.411" y2="841.081"/>
<line x1="1224.746" y1="682.161" x2="1767.331" y2="1224.746"/>
<line x1="1224.746" y1="682.161" x2="1383.665" y2="298.496"/>
<line x1="1224.746" y1="682.161" x2="1542.585" y2="682.161"/>
<line x1="1224.746" y1="682.161" x2="1767.331" y2="457.415"/>
<line x1="1224.746" y1="682.161" x2="457.415" y2="682.161"/>
<line x1="1224.746" y1="682.161" x2="682.161" y2="457.415"/>
<line x1="1224.746" y1="682.161" x2="841.081" y2="841.081"/>
<line x1="1224.746" y1="682.161" x2="841.081" y2="1065.827"/>
<line x1="1224.746" y1="682.161" x2="1065.827" y2="841.081"/>
<line x1="1224.746" y1="682.161" x2="841.081" y2="298.496"/>
<line x1="1383.665" y1="1065.827" x2="1608.411" y2="841.081"/>
<line x1="1383.665" y1="1065.827" x2="1767.331" y2="1224.746"/>
<line x1="1383.665" y1="1065.827" x2="1383.665" y2="298.496"/>
<line x1="1383.665" y1="1065.827" x2="1542.585" y2="682.161"/>
<line x1="1383.665" y1="1065.827" x2="1926.250" y2="841.081"/>
<line x1="1383.665" y1="1065.827" x2="616.335" y2="1065.827"/>
<line x1="1383.665" y1="1065.827" x2="1158.919" y2="1608.411"/>
<line x1="1383.665" y1="1065.827" x2="1000.000" y2="1224.746"/>
<line x1="1383.665" y1="1065.827" x2="841.081" y2="1065.827"/>
<line x1="1383.665" y1="1065.827" x2="1383.665" y2="1608.411"/>
<line x1="1383.665" y1="1065.827" x2="1158.919" y2="1065.827"/>
<line x1="1608.411" y1="841.081" x2="1767.331" y2="1224.746"/>
<line x1="1608.411" y1="841.081" x2="1383.665" y2="298.496"/>
<line x1="1608.411" y1="841.081" x2="1767.331" y2="457.415"/>
<line x1="1608.411" y1="841.081" x2="1926.250" y2="841.081"/>
<line x1="1608.411" y1="841.081" x2="1608.411" y2="1158.919"/>
<line x1="1608.411" y1="841.081" x2="1065.827" y2="616.335"/>
<line x1="1608.411" y1="841.081" x2="1224.746" y2="1000.000"/>
<line x1="1608.411" y1="841.081" x2="1065.827" y2="841.081"/>
<line x1="1608.411" y1="841.081" x2="1608.411" y2="1383.665"/>
<line x1="1608.411" y1="841.081" x2="1608.411" y2="616.335"/>
<line x1="1767.331" y1="1224.746" x2="1542.585" y2="682.161"/>
<line x1="1767.331" y1="1224.746" x2="1767.331" y2="457.415"/>
<line x1="1767.331" y1="1224.746" x2="1926.250" y2="841.081"/>
<line x1="1767.331" y1="1224.746" x2="1767.331" y2="1542.585"/>
<line x1="1767.331" y1="1224.746" x2="1542.585" y2="1767.331"/>
<line x1="1767.331" y1="1224.746" x2="1383.665" y2="1383.665"/>
<line x1="1767.331" y1="1224.746" x2="1383.665" y2="1608.411"/>
<line x1="1767.331" y1="1224.746" x2="1608.411" y2="1383.665"/>
<line x1="1767.331" y1="1224.746" x2="1926.250" y2="1383.665"/>
<line x1="1383.665" y1="298.496" x2="1542.585" y2="682.161"/>
<line x1="1383.665" y1="298.496" x2="1767.331" y2="457.415"/>
<line x1="1383.665" y1="298.496" x2="1926.250" y2="841.081"/>
<line x1="1383.665" y1="298.496" x2="616.335" y2="298.496"/>
<line x1="1383.665" y1="298.496" x2="841.081" y2="73.750"/>
<line x1="1383.665" y1="298.496" x2="1000.000" y2="457.415"/>
<line x1="1383.665" y1="298.496" x2="841.081" y2="298.496"/>
<line x1="1383.665" y1="298.496" x2="1158.919" y2="298.496"/>
<line x1="1383.665" y1="298.496" x2="1383.665" y2="73.750"/>
<line x1="1542.585" y1="682.161" x2="1767.331" y2="457.415"/>
<line x1="1542.585" y1="682.161" x2="1926.250" y2="841.081"/>
<line x1="1542.585" y1="682.161" x2="775.254" y2="682.161"/>
<line x1="1542.585" y1="682.161" x2="1317.839" y2="1224.746"/>
<line x1="1542.585" y1="682.161" x2="1158.919" y2="841.081"/>
<line x1="1542.585" y1="682.161" x2="1158.919" y2="1065.827"/>
<line x1="1542.585" y1="682.161" x2="1158.919" y2="298.496"/>
<line x1="1542.585" y1="682.161" x2="1701.504" y2="841.081"/>
<line x1="1767.331" y1="457.415" x2="1926.250" y2="841.081"/>
<line x1="1767.331" y1="457.415" x2="1767.331" y2="775.254"/>
<line x1="1767.331" y1="457.415" x2="1224.746" y2="232.669"/>
<line x1="1767.331" y1="457.415" x2="1383.665" y2="616.335"/>
<line x1="1767.331" y1="457.415" x2="1608.411" y2="616.335"/>
<line x1="1767.331" y1="457.415" x2="1383.665" y2="73.750"/>
<line x1="1767.331" y1="457.415" x2="1926.250" y2="616.335"/>
<line x1="1926.250" y1="841.081" x2="1926.250" y2="1158.919"/>
<line x1="1926.250" y1="841.081" x2="1701.504" y2="1383.665"/>
<line x1="1926.250" y1="841.081" x2="1542.585" y2="1000.000"/>
<line x1="1926.250" y1="841.081" x2="1926.250" y2="1383.665"/>
<line x1="1926.250" y1="841.081" x2="1701.504" y2="841.081"/>
<line x1="1926.250" y1="841.081" x2="1926.250" y2="616.335"/>
<line x1="457.415" y1="457.415" x2="616.335" y2="841.081"/>
<line x1="457.415" y1="457.415" x2="73.750" y2="841.081"/>
<line x1="457.415" y1="457.415" x2="457.415" y2="682.161"/>
<line x1="457.415" y1="457.415" x2="232.669" y2="457.415"/>
<line x1="457.415" y1="457.415" x2="616.335" y2="298.496"/>
<line x1="457.415" y1="457.415" x2="841.081" y2="616.335"/>
<line x1="457.415" y1="457.415" x2="298.496" y2="616.335"/>
<line x1="457.415" y1="457.415" x2="682.161" y2="457.415"/>
<line x1="457.415" y1="457.415" x2="457.415" y2="232.669"/>
<line x1="457.415" y1="457.415" x2="841.081" y2="73.750"/>
<line x1="775.254" y1="1224.746" x2="616.335" y2="841.081"/>
<line x1="775.254" y1="1224.746" x2="232.669" y2="1224.746"/>
<line x1="775.254" y1="1224.746" x2="616.335" y2="1065.827"/>
<line x1="775.254" y1="1224.746" x2="391.589" y2="841.081"/>
<line x1="775.254" y1="1224.746" x2="775.254" y2="682.161"/>
<line x1="775.254" y1="1224.746" x2="1158.919" y2="1383.665"/>
<line x1="775.254" y1="1224.746" x2="775.254" y2="1767.331"/>
<line x1="775.254" y1="1224.746" x2="1158.919" y2="1608.411"/>
<line x1="775.254" y1="1224.746" x2="934.173" y2="1383.665"/>
<line x1="775.254" y1="1224.746" x2="1317.839" y2="1224.746"/>
<line x1="616.335" y1="841.081" x2="73.750" y2="841.081"/>
<line x1="616.335" y1="841.081" x2="616.335" y2="1065.827"/>
<line x1="616.335" y1="841.081" x2="391.589" y2="841.081"/>
<line x1="616.335" y1="841.081" x2="616.335" y2="298.496"/>
<line x1="616.335" y1="841.081" x2="841.081" y2="616.335"/>
<line x1="616.335" y1="841.081" x2="1158.919" y2="1383.665"/>
<line x1="616.335" y1="841.081" x2="457.415" y2="1000.000"/>
<line x1="616.335" y1="841.081" x2="1000.000" y2="1224.746"/>
<line x1="616.335" y1="841.081" x2="775.254" y2="1000.000"/>
<line x1="616.335" y1="841.081" x2="1000.000" y2="457.415"/>
<line x1="616.335" y1="841.081" x2="232.669" y2="1224.746"/>
<line x1="616.335" y1="841.081" x2="457.415" y2="682.161"/>
<line x1="616.335" y1="841.081" x2="232.669" y2="457.415"/>
<line x1="616.335" y1="841.081" x2="775.254" y2="682.161"/>
<line x1="616.335" y1="841.081" x2="616.335" y2="1383.665"/>
<line x1="616.335" y1="841.081" x2="841.081" y2="841.081"/>
<line x1="616.335" y1="841.081" x2="616.335" y2="616.335"/>
<line x1="616.335" y1="841.081" x2="1158.919" y2="841.081"/>
<line x1="73.750" y1="841.081" x2="232.669" y2="1224.746"/>
<line x1="73.750" y1="841.081" x2="457.415" y2="682.161"/>
<line x1="73.750" y1="841.081" x2="616.335" y2="1065.827"/>
<line x1="73.750" y1="841.081" x2="232.669" y2="457.415"/>
<line x1="73.750" y1="841.081" x2="391.589" y2="841.081"/>
<line x1="73.750" y1="841.081" x2="616.335" y2="298.496"/>
<line x1="73.750" y1="841.081" x2="298.496" y2="616.335"/>
<line x1="73.750" y1="841.081" x2="457.415" y2="1000.000"/>
<line x1="73.750" y1="841.081" x2="73.750" y2="1383.665"/>
<line x1="73.750" y1="841.081" x2="298.496" y2="841.081"/>
<line x1="73.750" y1="841.081" x2="73.750" y2="616.335"/>
<line x1="232.669" y1="1224.746" x2="457.415" y2="682.161"/>
<line x1="232.669" y1="1224.746" x2="616.335" y2="1065.827"/>
<line x1="232.669" y1="1224.746" x2="232.669" y2="457.415"/>
<line x1="232.669" y1="1224.746" x2="391.589" y2="841.081"/>
<line x1="232.669" y1="1224.746" x2="775.254" y2="682.161"/>
<line x1="232.669" y1="1224.746" x2="775.254" y2="1767.331"/>
<line x1="232.669" y1="1224.746" x2="616.335" y2="1383.665"/>
<line x1="232.669" y1="1224.746" x2="73.750" y2="1383.665"/>
<line x1="232.669" y1="1224.746" x2="616.335" y2="1608.411"/>
<line x1="232.669" y1="1224.746" x2="391.589" y2="1383.665"/>
<line x1="457.415" y1="682.161" x2="616.335" y2="1065.827"/>
<line x1="457.415" y1="682.161" x2="232.669" y2="457.415"/>
<line x1="457.415" y1="682.161" x2="616.335" y2="298.496"/>
<line x1="457.415" y1="682.161" x2="775.254" y2="682.161"/>
<line x1="457.415" y1="682.161" x2="682.161" y2="457.415"/>
<line x1="457.415" y1="682.161" x2="841.081" y2="841.081"/>
<line x1="457.415" y1="682.161" x2="298.496" y2="841.081"/>
<line x1="457.415" y1="682.161" x2="841.081" y2="1065.827"/>
<line x1="457.415" y1="682.161" x2="841.081" y2="298.496"/>
<line x1="616.335" y1="1065.827" x2="391.589" y2="841.081"/>
<line x1="616.335" y1="1065.827" x2="616.335" y2="298.496"/>
<line x1="616.335" y1="1065.827" x2="775.254" y2="682.161"/>
<line x1="616.335" y1="1065.827" x2="1158.919" y2="1608.411"/>
<line x1="616.335" y1="1065.827" x2="1000.000" y2="1224.746"/>
<line x1="616.335" y1="1065.827" x2="616.335" y2="1608.411"/>
<line x1="616.335" y1="1065.827" x2="841.081" y2="1065.827"/>
<line x1="616.335" y1="1065.827" x2="1158.919" y2="1065.827"/>
<line x1="232.669" y1="457.415" x2="391.589" y2="841.081"/>
<line x1="232.669" y1="457.415" x2="616.335" y2="298.496"/>
<line x1="232.669" y1="457.415" x2="775.254" y2="682.161"/>
<line x1="232.669" y1="457.415" x2="457.415" y2="232.669"/>
<line x1="232.669" y1="457.415" x2="616.335" y2="616.335"/>
<line x1="232.669" y1="457.415" x2="73.750" y2="616.335"/>
<line x1="232.669" y1="457.415" x2="391.589" y2="616.335"/>
<line x1="232.669" y1="457.415" x2="616.335" y2="73.750"/>
<line x1="391.589" y1="841.081" x2="616.335" y2="298.496"/>
<line x1="391.589" y1="841.081" x2="775.254" y2="682.161"/>
<line x1="391.589" y1="841.081" x2="934.173" y2="1383.665"/>
<line x1="391.589" y1="841.081" x2="775.254" y2="1000.000"/>
<line x1="391.589" y1="841.081" x2="391.589" y2="1383.665"/>
<line x1="391.589" y1="841.081" x2="391.589" y2="616.335"/>
<line x1="391.589" y1="841.081" x2="934.173" y2="841.081"/>
<line x1="616.335" y1="298.496" x2="775.254" y2="682.161"/>
<line x1="616.335" y1="298.496" x2="841.081" y2="73.750"/>
<line x1="616.335" y1="298.496" x2="1000.000" y2="457.415"/>
<line x1="616.335" y1="298.496" x2="841.081" y2="298.496"/>
<line x1="616.335" y1="298.496" x2="616.335" y2="73.750"/>
<line x1="616.335" y1="298.496" x2="1158.919" y2="298.496"/>
<line x1="775.254" y1="682.161" x2="1317.839" y2="1224.746"/>
<line x1="775.254" y1="682.161" x2="1158.919" y2="841.081"/>
<line x1="775.254" y1="682.161" x2="1158.919" y2="1065.827"/>
<line x1="775.254" y1="682.161" x2="934.173" y2="841.081"/>
<line x1="775.254" y1="682.161" x2="1158.919" y2="298.496"/>
<line x1="1224.746" y1="775.254" x2="1383.665" y2="1158.919"/>
<line x1="1224.746" y1="775.254" x2="1224.746" y2="1317.839"/>
<line x1="1224.746" y1="775.254" x2="1608.411" y2="1158.919"/>
<line x1="1224.746" y1="775.254" x2="1383.665" y2="934.173"/>
<line x1="1224.746" y1="775.254" x2="1767.331" y2="775.254"/>
<line x1="1224.746" y1="775.254" x2="841.081" y2="616.335"/>
<line x1="1224.746" y1="775.254" x2="682.161" y2="775.254"/>
<line x1="1224.746" y1="775.254" x2="1065.827" y2="616.335"/>
<line x1="1224.746" y1="775.254" x2="841.081" y2="391.589"/>
<line x1="1224.746" y1="775.254" x2="1224.746" y2="232.669"/>
<line x1="1542.585" y1="1542.585" x2="1383.665" y2="1158.919"/>
<line x1="1542.585" y1="1542.585" x2="1383.665" y2="1701.504"/>
<line x1="1542.585" y1="1542.585" x2="1767.331" y2="1542.585"/>
<line x1="1542.585" y1="1542.585" x2="1542.585" y2="1317.839"/>
<line x1="1542.585" y1="1542.585" x2="1926.250" y2="1158.919"/>
<line x1="1542.585" y1="1542.585" x2="1158.919" y2="1383.665"/>
<line x1="1542.585" y1="1542.585" x2="1158.919" y2="1926.250"/>
<line x1="1542.585" y1="1542.585" x2="1542.585" y2="1767.331"/>
<line x1="1542.585" y1="1542.585" x2="1317.839" y2="1542.585"/>
<line x1="1542.585" y1="1542.585" x2="1701.504" y2="1383.665"/>
<line x1="1383.665" y1="1158.919" x2="1383.665" y2="1701.504"/>
<line x1="1383.665" y1="1158.919" x2="1608.411" y2="1158.919"/>
<line x1="1383.665" y1="1158.919" x2="1383.665" y2="934.173"/>
<line x1="1383.665" y1="1158.919" x2="1926.250" y2="1158.919"/>
<line x1="1383.665" y1="1158.919" x2="841.081" y2="616.335"/>
<line x1="1383.665" y1="1158.919" x2="1158.919" y2="1383.665"/>
<line x1="1383.665" y1="1158.919" x2="1000.000" y2="1542.585"/>
<line x1="1383.665" y1="1158.919" x2="1224.746" y2="1000.000"/>
<line x1="1383.665" y1="1158.919" x2="1000.000" y2="775.254"/>
<line x1="1383.665" y1="1158.919" x2="1542.585" y2="1000.000"/>
<line x1="1383.665" y1="1158.919" x2="1224.746" y2="1317.839"/>
<line x1="1383.665" y1="1158.919" x2="1767.331" y2="1542.585"/>
<line x1="1383.665" y1="1158.919" x2="1542.585" y2="1317.839"/>
<line x1="1383.665" y1="1158.919" x2="1767.331" y2="775.254"/>
<line x1="1383.665" y1="1158.919" x2="841.081" y2="1158.919"/>
<line x1="1383.665" y1="1158.919" x2="1383.665" y2="1383.665"/>
<line x1="1383.665" y1="1158.919" x2="1158.919" y2="1158.919"/>
<line x1="1383.665" y1="1158.919" x2="1383.665" y2="616.335"/>
<line x1="1224.746" y1="1317.839" x2="1383.665" y2="1701.504"/>
<line x1="1224.746" y1="1317.839" x2="1608.411" y2="1158.919"/>
<line x1="1224.746" y1="1317.839" x2="1767.331" y2="1542.585"/>
<line x1="1224.746" y1="1317.839" x2="1383.665" y2="934.173"/>
<line x1="1224.746" y1="1317.839" x2="1542.585" y2="1317.839"/>
<line x1="1224.746" y1="1317.839" x2="1767.331" y2="775.254"/>
<line x1="1224.746" y1="1317.839" x2="682.161" y2="775.254"/>
<line x1="1224.746" y1="1317.839" x2="841.081" y2="1158.919"/>
<line x1="1224.746" y1="1317.839" x2="841.081" y2="1701.504"/>
<line x1="1224.746" y1="1317.839" x2="1065.827" y2="1158.919"/>
<line x1="1224.746" y1="1317.839" x2="841.081" y2="934.173"/>
<line x1="1383.665" y1="1701.504" x2="1608.411" y2="1158.919"/>
<line x1="1383.665" y1="1701.504" x2="1767.331" y2="1542.585"/>
<line x1="1383.665" y1="1701.504" x2="1383.665" y2="934.173"/>
<line x1="1383.665" y1="1701.504" x2="1542.585" y2="1317.839"/>
<line x1="1383.665" y1="1701.504" x2="1926.250" y2="1158.919"/>
<line x1="1383.665" y1="1701.504" x2="1158.919" y2="1926.250"/>
<line x1="1383.665" y1="1701.504" x2="1000.000" y2="1542.585"/>
<line x1="1383.665" y1="1701.504" x2="841.081" y2="1701.504"/>
<line x1="1383.665" y1="1701.504" x2="1383.665" y2="1926.250"/>
<line x1="1383.665" y1="1701.504" x2="1158.919" y2="1701.504"/>
<line x1="1608.411" y1="1158.919" x2="1767.331" y2="1542.585"/>
<line x1="1608.411" y1="1158.919" x2="1383.665" y2="934.173"/>
<line x1="1608.411" y1="1158.919" x2="1767.331" y2="775.254"/>
<line x1="1608.411" y1="1158.919" x2="1926.250" y2="1158.919"/>
<line x1="1608.411" y1="1158.919" x2="1065.827" y2="616.335"/>
<line x1="1608.411" y1="1158.919" x2="1224.746" y2="1000.000"/>
<line x1="1608.411" y1="1158.919" x2="1065.827" y2="1158.919"/>
<line x1="1608.411" y1="1158.919" x2="1608.411" y2="1383.665"/>
<line x1="1608.411" y1="1158.919" x2="1608.411" y2="616.335"/>
<line x1="1767.331" y1="1542.585" x2="1542.585" y2="1317.839"/>
<line x1="1767.331" y1="1542.585" x2="1767.331" y2="775.254"/>
<line x1="1767.331" y1="1542.585" x2="1926.250" y2="1158.919"/>
<line x1="1767.331" y1="1542.585" x2="1542.585" y2="1767.331"/>
<line x1="1767.331" y1="1542.585" x2="1383.665" y2="1383.665"/>
<line x1="1767.331" y1="1542.585" x2="1383.665" y2="1926.250"/>
<line x1="1767.331" y1="1542.585" x2="1608.411" y2="1383.665"/>
<line x1="1767.331" y1="1542.585" x2="1926.250" y2="1383.665"/>
<line x1="1383.665" y1="934.173" x2="1542.585" y2="1317.839"/>
<line x1="1383.665" y1="934.173" x2="1767.331" y2="775.254"/>
<line x1="1383.665" y1="934.173" x2="1926.250" y2="1158.919"/>
<line x1="1383.665" y1="934.173" x2="841.081" y2="391.589"/>
<line x1="1383.665" y1="934.173" x2="1000.000" y2="775.254"/>
<line x1="1383.665" y1="934.173" x2="841.081" y2="934.173"/>
<line x1="1383.665" y1="934.173" x2="1158.919" y2="934.173"/>
<line x1="1383.665" y1="934.173" x2="1383.665" y2="391.589"/>
<line x1="1542.585" y1="1317.839" x2="1767.331" y2="775.254"/>
<line x1="1542.585" y1="1317.839" x2="1926.250" y2="1158.919"/>
<line x1="1542.585" y1="1317.839" x2="1317.839" y2="1542.585"/>
<line x1="1542.585" y1="1317.839" x2="1158.919" y2="1158.919"/>
<line x1="1542.585" y1="1317.839" x2="1158.919" y2="1701.504"/>
<line x1="1542.585" y1="1317.839" x2="1158.919" y2="934.173"/>
<line x1="1542.585" y1="1317.839" x2="1701.504" y2="1158.919"/>
<line x1="1767.331" y1="775.254" x2="1926.250" y2="1158.919"/>
<line x1="1767.331" y1="775.254" x2="1224.746" y2="232.669"/>
<line x1="1767.331" y1="775.254" x2="1383.665" y2="616.335"/>
<line x1="1767.331" y1="775.254" x2="1608.411" y2="616.335"/>
<line x1="1767.331" y1="775.254" x2="1383.665" y2="391.589"/>
<line x1="1767.331" y1="775.254" x2="1926.250" y2="616.335"/>
<line x1="1926.250" y1="1158.919" x2="1701.504" y2="1383.665"/>
<line x1="1926.250" y1="1158.919" x2="1542.585" y2="1000.000"/>
<line x1="1926.250" y1="1158.919" x2="1926.250" y2="1383.665"/>
<line x1="1926.250" y1="1158.919" x2="1701.504" y2="1158.919"/>
<line x1="1926.250" y1="1158.919" x2="1926.250" y2="616.335"/>
<line x1="841.081" y1="616.335" x2="298.496" y2="616.335"/>
<line x1="841.081" y1="616.335" x2="1065.827" y2="616.335"/>
<line x1="841.081" y1="616.335" x2="841.081" y2="391.589"/>
<line x1="841.081" y1="616.335" x2="841.081" y2="73.750"/>
<line x1="841.081" y1="616.335" x2="457.415" y2="1000.000"/>
<line x1="841.081" y1="616.335" x2="1224.746" y2="1000.000"/>
<line x1="841.081" y1="616.335" x2="1000.000" y2="775.254"/>
<line x1="841.081" y1="616.335" x2="1000.000" y2="457.415"/>
<line x1="841.081" y1="616.335" x2="682.161" y2="775.254"/>
<line x1="841.081" y1="616.335" x2="682.161" y2="457.415"/>
<line x1="841.081" y1="616.335" x2="457.415" y2="232.669"/>
<line x1="841.081" y1="616.335" x2="1224.746" y2="232.669"/>
<line x1="841.081" y1="616.335" x2="841.081" y2="1158.919"/>
<line x1="841.081" y1="616.335" x2="841.081" y2="841.081"/>
<line x1="841.081" y1="616.335" x2="616.335" y2="616.335"/>
<line x1="841.081" y1="616.335" x2="1383.665" y2="616.335"/>
<line x1="298.496" y1="616.335" x2="682.161" y2="775.254"/>
<line x1="298.496" y1="616.335" x2="682.161" y2="457.415"/>
<line x1="298.496" y1="616.335" x2="1065.827" y2="616.335"/>
<line x1="298.496" y1="616.335" x2="457.415" y2="232.669"/>
<line x1="298.496" y1="616.335" x2="841.081" y2="391.589"/>
<line x1="298.496" y1="616.335" x2="841.081" y2="73.750"/>
<line x1="298.496" y1="616.335" x2="457.415" y2="1000.000"/>
<line x1="298.496" y1="616.335" x2="298.496" y2="1158.919"/>
<line x1="298.496" y1="616.335" x2="298.496" y2="841.081"/>
<line x1="298.496" y1="616.335" x2="73.750" y2="616.335"/>
<line x1="682.161" y1="775.254" x2="682.161" y2="457.415"/>
<line x1="682.161" y1="775.254" x2="1065.827" y2="616.335"/>
<line x1="682.161" y1="775.254" x2="457.415" y2="232.669"/>
<line x1="682.161" y1="775.254" x2="841.081" y2="391.589"/>
<line x1="682.161" y1="775.254" x2="1224.746" y2="232.669"/>
<line x1="682.161" y1="775.254" x2="841.081" y2="1158.919"/>
<line x1="682.161" y1="775.254" x2="298.496" y2="1158.919"/>
<line x1="682.161" y1="775.254" x2="1065.827" y2="1158.919"/>
<line x1="682.161" y1="775.254" x2="841.081" y2="934.173"/>
<line x1="682.161" y1="457.415" x2="1065.827" y2="616.335"/>
<line x1="682.161" y1="457.415" x2="457.415" y2="232.669"/>
<line x1="682.161" y1="457.415" x2="841.081" y2="73.750"/>
<line x1="682.161" y1="457.415" x2="1224.746" y2="232.669"/>
<line x1="682.161" y1="457.415" x2="841.081" y2="841.081"/>
<line x1="682.161" y1="457.415" x2="298.496" y2="841.081"/>
<line x1="682.161" y1="457.415" x2="1065.827" y2="841.081"/>
<line x1="682.161" y1="457.415" x2="841.081" y2="298.496"/>
<line x1="1065.827" y1="616.335" x2="841.081" y2="391.589"/>
<line x1="1065.827" y1="616.335" x2="841.081" y2="73.750"/>
<line x1="1065.827" y1="616.335" x2="1224.746" y2="232.669"/>
<line x1="1065.827" y1="616.335" x2="1224.746" y2="1000.000"/>
<line x1="1065.827" y1="616.335" x2="1065.827" y2="1158.919"/>
<line x1="1065.827" y1="616.335" x2="1065.827" y2="841.081"/>
<line x1="1065.827" y1="616.335" x2="1608.411" y2="616.335"/>
<line x1="457.415" y1="232.669" x2="841.081" y2="391.589"/>
<line x1="457.415" y1="232.669" x2="841.081" y2="73.750"/>
<line x1="457.415" y1="232.669" x2="1224.746" y2="232.669"/>
<line x1="457.415" y1="232.669" x2="616.335" y2="616.335"/>
<line x1="457.415" y1="232.669" x2="73.750" y2="616.335"/>
<line x1="457.415" y1="232.669" x2="616.335" y2="391.589"/>
<line x1="457.415" y1="232.669" x2="616.335" y2="73.750"/>
<line x1="841.081" y1="391.589" x2="841.081" y2="73.750"/>
<line x1="841.081" y1="391.589" x2="1224.746" y2="232.669"/>
<line x1="841.081" y1="391.589" x2="1000.000" y2="775.254"/>
<line x1="841.081" y1="391.589" x2="841.081" y2="934.173"/>
<line x1="841.081" y1="391.589" x2="616.335" y2="391.589"/>
<line x1="841.081" y1="391.589" x2="1383.665" y2="391.589"/>
<line x1="841.081" y1="73.750" x2="1224.746" y2="232.669"/>
<line x1="841.081" y1="73.750" x2="1000.000" y2="457.415"/>
<line x1="841.081" y1="73.750" x2="841.081" y2="298.496"/>
<line x1="841.081" y1="73.750" x2="616.335" y2="73.750"/>
<line x1="841.081" y1="73.750" x2="1383.665" y2="73.750"/>
<line x1="1224.746" y1="232.669" x2="1383.665" y2="616.335"/>
<line x1="1224.746" y1="232.669" x2="1608.411" y2="616.335"/>
<line x1="1224.746" y1="232.669" x2="1383.665" y2="391.589"/>
<line x1="1224.746" y1="232.669" x2="1383.665" y2="73.750"/>
<line x1="1158.919" y1="1383.665" x2="1158.919" y2="1926.250"/>
<line x1="1158.919" y1="1383.665" x2="1158.919" y2="1608.411"/>
<line x1="1158.919" y1="1383.665" x2="934.173" y2="1383.665"/>
<line x1="1158.919" y1="1383.665" x2="1701.504" y2="1383.665"/>
<line x1="1158.919" y1="1383.665" x2="1000.000" y2="1542.585"/>
<line x1="1158.919" y1="1383.665" x2="1000.000" y2="1224.746"/>
<line x1="1158.919" y1="1383.665" x2="775.254" y2="1000.000"/>
<line x1="1158.919" y1="1383.665" x2="1542.585" y2="1000.000"/>
<line x1="1158.919" y1="1383.665" x2="775.254" y2="1767.331"/>
<line x1="1158.919" y1="1383.665" x2="1542.585" y2="1767.331"/>
<line x1="1158.919" y1="1383.665" x2="1317.839" y2="1542.585"/>
<line x1="1158.919" y1="1383.665" x2="1317.839" y2="1224.746"/>
<line x1="1158.919" y1="1383.665" x2="616.335" y2="1383.665"/>
<line x1="1158.919" y1="1383.665" x2="1383.665" y2="1383.665"/>
<line x1="1158.919" y1="1383.665" x2="1158.919" y2="1158.919"/>
<line x1="1158.919" y1="1383.665" x2="1158.919" y2="841.081"/>
<line x1="775.254" y1="1767.331" x2="1158.919" y2="1926.250"/>
<line x1="775.254" y1="1767.331" x2="1158.919" y2="1608.411"/>
<line x1="775.254" y1="1767.331" x2="1542.585" y2="1767.331"/>
<line x1="775.254" y1="1767.331" x2="934.173" y2="1383.665"/>
<line x1="775.254" y1="1767.331" x2="1317.839" y2="1542.585"/>
<line x1="775.254" y1="1767.331" x2="1317.839" y2="1224.746"/>
<line x1="775.254" y1="1767.331" x2="616.335" y2="1383.665"/>
<line x1="775.254" y1="1767.331" x2="616.335" y2="1926.250"/>
<line x1="775.254" y1="1767.331" x2="616.335" y2="1608.411"/>
<line x1="775.254" y1="1767.331" x2="391.589" y2="1383.665"/>
<line x1="1158.919" y1="1926.250" x2="1158.919" y2="1608.411"/>
<line x1="1158.919" y1="1926.250" x2="1542.585" y2="1767.331"/>
<line x1="1158.919" y1="1926.250" x2="934.173" y2="1383.665"/>
<line x1="1158.919" y1="1926.250" x2="1317.839" y2="1542.585"/>
<line x1="1158.919" y1="1926.250" x2="1701.504" y2="1383.665"/>
<line x1="1158.919" y1="1926.250" x2="1000.000" y2="1542.585"/>
<line x1="1158.919" y1="1926.250" x2="616.335" y2="1926.250"/>
<line x1="1158.919" y1="1926.250" x2="1383.665" y2="1926.250"/>
<line x1="1158.919" y1="1926.250" x2="1158.919" y2="1701.504"/>
<line x1="1158.919" y1="1608.411" x2="1542.585" y2="1767.331"/>
<line x1="1158.919" y1="1608.411" x2="934.173" y2="1383.665"/>
<line x1="1158.919" y1="1608.411" x2="1317.839" y2="1224.746"/>
<line x1="1158.919" y1="1608.411" x2="1701.504" y2="1383.665"/>
<line x1="1158.919" y1="1608.411" x2="1000.000" y2="1224.746"/>
<line x1="1158.919" y1="1608.411" x2="616.335" y2="1608.411"/>
<line x1="1158.919" y1="1608.411" x2="1383.665" y2="1608.411"/>
<line x1="1158.919" y1="1608.411" x2="1158.919" y2="1065.827"/>
<line x1="1542.585" y1="1767.331" x2="1317.839" y2="1542.585"/>
<line x1="1542.585" y1="1767.331" x2="1317.839" y2="1224.746"/>
<line x1="1542.585" y1="1767.331" x2="1701.504" y2="1383.665"/>
<line x1="1542.585" y1="1767.331" x2="1383.665" y2="1383.665"/>
<line x1="1542.585" y1="1767.331" x2="1383.665" y2="1926.250"/>
<line x1="1542.585" y1="1767.331" x2="1383.665" y2="1608.411"/>
<line x1="1542.585" y1="1767.331" x2="1926.250" y2="1383.665"/>
<line x1="934.173" y1="1383.665" x2="1317.839" y2="1542.585"/>
<line x1="934.173" y1="1383.665" x2="1317.839" y2="1224.746"/>
<line x1="934.173" y1="1383.665" x2="1701.504" y2="1383.665"/>
<line x1="934.173" y1="1383.665" x2="775.254" y2="1000.000"/>
<line x1="934.173" y1="1383.665" x2="391.589" y2="1383.665"/>
<line x1="934.173" y1="1383.665" x2="934.173" y2="1158.919"/>
<line x1="934.173" y1="1383.665" x2="934.173" y2="841.081"/>
<line x1="1317.839" y1="1542.585" x2="1317.839" y2="1224.746"/>
<line x1="1317.839" y1="1542.585" x2="1701.504" y2="1383.665"/>
<line x1="1317.839" y1="1542.585" x2="1158.919" y2="1158.919"/>
<line x1="1317.839" y1="1542.585" x2="1158.919" y2="1701.504"/>
<line x1="1317.839" y1="1542.585" x2="934.173" y2="1158.919"/>
<line x1="1317.839" y1="1542.585" x2="1701.504" y2="1158.919"/>
<line x1="1317.839" y1="1224.746" x2="1701.504" y2="1383.665"/>
<line x1="1317.839" y1="1224.746" x2="1158.919" y2="841.081"/>
<line x1="1317.839" y1="1224.746" x2="1158.919" y2="1065.827"/>
<line x1="1317.839" y1="1224.746" x2="934.173" y2="841.081"/>
<line x1="1317.839" y1="1224.746" x2="1701.504" y2="841.081"/>
<line x1="1701.504" y1="1383.665" x2="1542.585" y2="1000.000"/>
<line x1="1701.504" y1="1383.665" x2="1926.250" y2="1383.665"/>
<line x1="1701.504" y1="1383.665" x2="1701.504" y2="1158.919"/>
<line x1="1701.504" y1="1383.665" x2="1701.504" y2="841.081"/>
<line x1="457.415" y1="1000.000" x2="1000.000" y2="1542.585"/>
<line x1="457.415" y1="1000.000" x2="1000.000" y2="1224.746"/>
<line x1="457.415" y1="1000.000" x2="1224.746" y2="1000.000"/>
<line x1="457.415" y1="1000.000" x2="775.254" y2="1000.000"/>
<line x1="457.415" y1="1000.000" x2="1000.000" y2="775.254"/>
<line x1="457.415" y1="1000.000" x2="1000.000" y2="457.415"/>
<line x1="457.415" y1="1000.000" x2="457.415" y2="1542.585"/>
<line x1="457.415" y1="1000.000" x2="457.415" y2="1224.746"/>
<line x1="457.415" y1="1000.000" x2="682.161" y2="1000.000"/>
<line x1="457.415" y1="1000.000" x2="232.669" y2="1000.000"/>
<line x1="457.415" y1="1000.000" x2="457.415" y2="775.254"/>
<line x1="457.415" y1="1000.000" x2="457.415" y2="457.415"/>
<line x1="1000.000" y1="1542.585" x2="1000.000" y2="1224.746"/>
<line x1="1000.000" y1="1542.585" x2="1224.746" y2="1000.000"/>
<line x1="1000.000" y1="1542.585" x2="775.254" y2="1000.000"/>
<line x1="1000.000" y1="1542.585" x2="1000.000" y2="775.254"/>
<line x1="1000.000" y1="1542.585" x2="1542.585" y2="1000.000"/>
<line x1="1000.000" y1="1542.585" x2="457.415" y2="1542.585"/>
<line x1="1000.000" y1="1542.585" x2="1000.000" y2="1767.331"/>
<line x1="1000.000" y1="1542.585" x2="1224.746" y2="1542.585"/>
<line x1="1000.000" y1="1542.585" x2="775.254" y2="1542.585"/>
<line x1="1000.000" y1="1542.585" x2="1000.000" y2="1317.839"/>
<line x1="1000.000" y1="1542.585" x2="1542.585" y2="1542.585"/>
<line x1="1000.000" y1="1224.746" x2="1224.746" y2="1000.000"/>
<line x1="1000.000" y1="1224.746" x2="775.254" y2="1000.000"/>
<line x1="1000.000" y1="1224.746" x2="1000.000" y2="457.415"/>
<line x1="1000.000" y1="1224.746" x2="1542.585" y2="1000.000"/>
<line x1="1000.000" y1="1224.746" x2="457.415" y2="1224.746"/>
<line x1="1000.000" y1="1224.746" x2="1000.000" y2="1767.331"/>
<line x1="1000.000" y1="1224.746" x2="1224.746" y2="1224.746"/>
<line x1="1000.000" y1="1224.746" x2="775.254" y2="1224.746"/>
<line x1="1000.000" y1="1224.746" x2="1000.000" y2="682.161"/>
<line x1="1000.000" y1="1224.746" x2="1542.585" y2="1224.746"/>
<line x1="1224.746" y1="1000.000" x2="1000.000" y2="775.254"/>
<line x1="1224.746" y1="1000.000" x2="1000.000" y2="457.415"/>
<line x1="1224.746" y1="1000.000" x2="1542.585" y2="1000.000"/>
<line x1="1224.746" y1="1000.000" x2="682.161" y2="1000.000"/>
<line x1="1224.746" y1="1000.000" x2="1224.746" y2="1542.585"/>
<line x1="1224.746" y1="1000.000" x2="1224.746" y2="1224.746"/>
<line x1="1224.746" y1="1000.000" x2="1224.746" y2="775.254"/>
<line x1="1224.746" y1="1000.000" x2="1224.746" y2="457.415"/>
<line x1="1224.746" y1="1000.000" x2="1767.331" y2="1000.000"/>
<line x1="775.254" y1="1000.000" x2="1000.000" y2="775.254"/>
<line x1="775.254" y1="1000.000" x2="1000.000" y2="457.415"/>
<line x1="775.254" y1="1000.000" x2="1542.585" y2="1000.000"/>
<line x1="775.254" y1="1000.000" x2="232.669" y2="1000.000"/>
<line x1="775.254" y1="1000.000" x2="775.254" y2="1542.585"/>
<line x1="775.254" y1="1000.000" x2="775.254" y2="1224.746"/>
<line x1="775.254" y1="1000.000" x2="775.254" y2="775.254"/>
<line x1="775.254" y1="1000.000" x2="775.254" y2="457.415"/>
<line x1="775.254" y1="1000.000" x2="1317.839" y2="1000.000"/>
<line x1="1000.000" y1="775.254" x2="1000.000" y2="457.415"/>
<line x1="1000.000" y1="775.254" x2="1542.585" y2="1000.000"/>
<line x1="1000.000" y1="775.254" x2="457.415" y2="775.254"/>
<line x1="1000.000" y1="775.254" x2="1000.000" y2="1317.839"/>
<line x1="1000.000" y1="775.254" x2="1224.746" y2="775.254"/>
<line x1="1000.000" y1="775.254" x2="775.254" y2="775.254"/>
<line x1="1000.000" y1="775.254" x2="1000.000" y2="232.669"/>
<line x1="1000.000" y1="775.254" x2="1542.585" y2="775.254"/>
<line x1="1000.000" y1="457.415" x2="1542.585" y2="1000.000"/>
<line x1="1000.000" y1="457.415" x2="457.415" y2="457.415"/>
<line x1="1000.000" y1="457.415" x2="1000.000" y2="682.161"/>
<line x1="1000.000" y1="457.415" x2="1224.746" y2="457.415"/>
<line x1="1000.000" y1="457.415" x2="775.254" y2="457.415"/>
<line x1="1000.000" y1="457.415" x2="1000.000" y2="232.669"/>
<line x1="1000.000" y1="457.415" x2="1542.585" y2="457.415"/>
<line x1="1542.585" y1="1000.000" x2="1542.585" y2="1542.585"/>
<line x1="1542.585" y1="1000.000" x2="1542.585" y2="1224.746"/>
<line x1="1542.585" y1="1000.000" x2="1767.331" y2="1000.000"/>
<line x1="1542.585" y1="1000.000" x2="1317.839" y2="1000.000"/>
<line x1="1542.585" y1="1000.000" x2="1542.585" y2="775.254"/>
<line x1="1542.585" y1="1000.000" x2="1542.585" y2="457.415"/>
<line x1="616.335" y1="1383.665" x2="841.081" y2="1158.919"/>
<line x1="616.335" y1="1383.665" x2="841.081" y2="841.081"/>
<line x1="616.335" y1="1383.665" x2="1383.665" y2="1383.665"/>
<line x1="616.335" y1="1383.665" x2="616.335" y2="616.335"/>
<line x1="616.335" y1="1383.665" x2="1158.919" y2="1158.919"/>
<line x1="616.335" y1="1383.665" x2="1158.919" y2="841.081"/>
<line x1="616.335" y1="1383.665" x2="457.415" y2="1542.585"/>
<line x1="616.335" y1="1383.665" x2="457.415" y2="1224.746"/>
<line x1="616.335" y1="1383.665" x2="1000.000" y2="1767.331"/>
<line x1="616.335" y1="1383.665" x2="232.669" y2="1000.000"/>
<line x1="616.335" y1="1383.665" x2="775.254" y2="1542.585"/>
<line x1="616.335" y1="1383.665" x2="775.254" y2="1224.746"/>
<line x1="841.081" y1="1158.919" x2="841.081" y2="841.081"/>
<line x1="841.081" y1="1158.919" x2="1383.665" y2="1383.665"/>
<line x1="841.081" y1="1158.919" x2="616.335" y2="616.335"/>
<line x1="841.081" y1="1158.919" x2="1158.919" y2="1158.919"/>
<line x1="841.081" y1="1158.919" x2="1383.665" y2="616.335"/>
<line x1="841.081" y1="1158.919" x2="457.415" y2="1542.585"/>
<line x1="841.081" y1="1158.919" x2="682.161" y2="1000.000"/>
<line x1="841.081" y1="1158.919" x2="1224.746" y2="1542.585"/>
<line x1="841.081" y1="1158.919" x2="457.415" y2="775.254"/>
<line x1="841.081" y1="1158.919" x2="1000.000" y2="1317.839"/>
<line x1="841.081" y1="1158.919" x2="1224.746" y2="775.254"/>
<line x1="841.081" y1="841.081" x2="1383.665" y2="1383.665"/>
<line x1="841.081" y1="841.081" x2="616.335" y2="616.335"/>
<line x1="841.081" y1="841.081" x2="1158.919" y2="841.081"/>
<line x1="841.081" y1="841.081" x2="1383.665" y2="616.335"/>
<line x1="841.081" y1="841.081" x2="457.415" y2="1224.746"/>
<line x1="841.081" y1="841.081" x2="682.161" y2="1000.000"/>
<line x1="841.081" y1="841.081" x2="1224.746" y2="1224.746"/>
<line x1="841.081" y1="841.081" x2="457.415" y2="457.415"/>
<line x1="841.081" y1="841.081" x2="1000.000" y2="682.161"/>
<line x1="841.081" y1="841.081" x2="1224.746" y2="457.415"/>
<line x1="1383.665" y1="1383.665" x2="1158.919" y2="1158.919"/>
<line x1="1383.665" y1="1383.665" x2="1158.919" y2="841.081"/>
<line x1="1383.665" y1="1383.665" x2="1383.665" y2="616.335"/>
<line x1="1383.665" y1="1383.665" x2="1000.000" y2="1767.331"/>
<line x1="1383.665" y1="1383.665" x2="1224.746" y2="1542.585"/>
<line x1="1383.665" y1="1383.665" x2="1224.746" y2="1224.746"/>
<line x1="1383.665" y1="1383.665" x2="1542.585" y2="1542.585"/>
<line x1="1383.665" y1="1383.665" x2="1542.585" y2="1224.746"/>
<line x1="1383.665" y1="1383.665" x2="1767.331" y2="1000.000"/>
<line x1="616.335" y1="616.335" x2="1158.919" y2="1158.919"/>
<line x1="616.335" y1="616.335" x2="1158.919" y2="841.081"/>
<line x1="616.335" y1="616.335" x2="1383.665" y2="616.335"/>
<line x1="616.335" y1="616.335" x2="232.669" y2="1000.000"/>
<line x1="616.335" y1="616.335" x2="457.415" y2="775.254"/>
<line x1="616.335" y1="616.335" x2="457.415" y2="457.415"/>
<line x1="616.335" y1="616.335" x2="775.254" y2="775.254"/>
<line x1="616.335" y1="616.335" x2="775.254" y2="457.415"/>
<line x1="616.335" y1="616.335" x2="1000.000" y2="232.669"/>
<line x1="1158.919" y1="1158.919" x2="1158.919" y2="841.081"/>
<line x1="1158.919" y1="1158.919" x2="1383.665" y2="616.335"/>
<line x1="1158.919" y1="1158.919" x2="775.254" y2="1542.585"/>
<line x1="1158.919" y1="1158.919" x2="1000.000" y2="1317.839"/>
<line x1="1158.919" y1="1158.919" x2="1542.585" y2="1542.585"/>
<line x1="1158.919" y1="1158.919" x2="775.254" y2="775.254"/>
<line x1="1158.919" y1="1158.919" x2="1317.839" y2="1000.000"/>
<line x1="1158.919" y1="1158.919" x2="1542.585" y2="775.254"/>
<line x1="1158.919" y1="841.081" x2="1383.665" y2="616.335"/>
<line x1="1158.919" y1="841.081" x2="775.254" y2="1224.746"/>
<line x1="1158.919" y1="841.081" x2="1000.000" y2="682.161"/>
<line x1="1158.919" y1="841.081" x2="1542.585" y2="1224.746"/>
<line x1="1158.919" y1="841.081" x2="775.254" y2="457.415"/>
<line x1="1158.919" y1="841.081" x2="1317.839" y2="1000.000"/>
<line x1="1158.919" y1="841.081" x2="1542.585" y2="457.415"/>
<line x1="1383.665" y1="616.335" x2="1224.746" y2="775.254"/>
<line x1="1383.665" y1="616.335" x2="1224.746" y2="457.415"/>
<line x1="1383.665" y1="616.335" x2="1767.331" y2="1000.000"/>
<line x1="1383.665" y1="616.335" x2="1000.000" y2="232.669"/>
<line x1="1383.665" y1="616.335" x2="1542.585" y2="775.254"/>
<line x1="1383.665" y1="616.335" x2="1542.585" y2="457.415"/>
<line x1="457.415" y1="1000.000" x2="616.335" y2="1383.665"/>
<line x1="457.415" y1="1000.000" x2="841.081" y2="1158.919"/>
<line x1="457.415" y1="1000.000" x2="841.081" y2="841.081"/>
<line x1="457.415" y1="1000.000" x2="616.335" y2="616.335"/>
<line x1="457.415" y1="1000.000" x2="73.750" y2="1383.665"/>
<line x1="457.415" y1="1000.000" x2="298.496" y2="1158.919"/>
<line x1="457.415" y1="1000.000" x2="298.496" y2="841.081"/>
<line x1="457.415" y1="1000.000" x2="73.750" y2="616.335"/>
<line x1="616.335" y1="1383.665" x2="1000.000" y2="1542.585"/>
<line x1="616.335" y1="1383.665" x2="1000.000" y2="1224.746"/>
<line x1="616.335" y1="1383.665" x2="775.254" y2="1000.000"/>
<line x1="616.335" y1="1383.665" x2="73.750" y2="1383.665"/>
<line x1="616.335" y1="1383.665" x2="616.335" y2="1926.250"/>
<line x1="616.335" y1="1383.665" x2="616.335" y2="1608.411"/>
<line x1="616.335" y1="1383.665" x2="391.589" y2="1383.665"/>
<line x1="841.081" y1="1158.919" x2="1000.000" y2="1542.585"/>
<line x1="841.081" y1="1158.919" x2="1224.746" y2="1000.000"/>
<line x1="841.081" y1="1158.919" x2="1000.000" y2="775.254"/>
<line x1="841.081" y1="1158.919" x2="298.496" y2="1158.919"/>
<line x1="841.081" y1="1158.919" x2="841.081" y2="1701.504"/>
<line x1="841.081" y1="1158.919" x2="1065.827" y2="1158.919"/>
<line x1="841.081" y1="1158.919" x2="841.081" y2="934.173"/>
<line x1="1000.000" y1="1542.585" x2="1383.665" y2="1383.665"/>
<line x1="1000.000" y1="1542.585" x2="1158.919" y2="1158.919"/>
<line x1="1000.000" y1="1542.585" x2="616.335" y2="1926.250"/>
<line x1="1000.000" y1="1542.585" x2="841.081" y2="1701.504"/>
<line x1="1000.000" y1="1542.585" x2="1383.665" y2="1926.250"/>
<line x1="1000.000" y1="1542.585" x2="1158.919" y2="1701.504"/>
<line x1="841.081" y1="841.081" x2="1000.000" y2="1224.746"/>
<line x1="841.081" y1="841.081" x2="1224.746" y2="1000.000"/>
<line x1="841.081" y1="841.081" x2="1000.000" y2="457.415"/>
<line x1="841.081" y1="841.081" x2="298.496" y2="841.081"/>
<line x1="841.081" y1="841.081" x2="841.081" y2="1065.827"/>
<line x1="841.081" y1="841.081" x2="1065.827" y2="841.081"/>
<line x1="841.081" y1="841.081" x2="841.081" y2="298.496"/>
<line x1="1000.000" y1="1224.746" x2="1383.665" y2="1383.665"/>
<line x1="1000.000" y1="1224.746" x2="1158.919" y2="841.081"/>
<line x1="1000.000" y1="1224.746" x2="616.335" y2="1608.411"/>
<line x1="1000.000" y1="1224.746" x2="841.081" y2="1065.827"/>
<line x1="1000.000" y1="1224.746" x2="1383.665" y2="1608.411"/>
<line x1="1000.000" y1="1224.746" x2="1158.919" y2="1065.827"/>
<line x1="1224.746" y1="1000.000" x2="1383.665" y2="1383.665"/>
<line x1="1224.746" y1="1000.000" x2="1383.665" y2="616.335"/>
<line x1="1224.746" y1="1000.000" x2="1065.827" y2="1158.919"/>
<line x1="1224.746" y1="1000.000" x2="1065.827" y2="841.081"/>
<line x1="1224.746" y1="1000.000" x2="1608.411" y2="1383.665"/>
<line x1="1224.746" y1="1000.000" x2="1608.411" y2="616.335"/>
<line x1="1383.665" y1="1383.665" x2="1542.585" y2="1000.000"/>
<line x1="1383.665" y1="1383.665" x2="1383.665" y2="1926.250"/>
<line x1="1383.665" y1="1383.665" x2="1383.665" y2="1608.411"/>
<line x1="1383.665" y1="1383.665" x2="1608.411" y2="1383.665"/>
<line x1="1383.665" y1="1383.665" x2="1926.250" y2="1383.665"/>
<line x1="616.335" y1="616.335" x2="775.254" y2="1000.000"/>
<line x1="616.335" y1="616.335" x2="1000.000" y2="775.254"/>
<line x1="616.335" y1="616.335" x2="1000.000" y2="457.415"/>
<line x1="616.335" y1="616.335" x2="73.750" y2="616.335"/>
<line x1="616.335" y1="616.335" x2="391.589" y2="616.335"/>
<line x1="616.335" y1="616.335" x2="616.335" y2="391.589"/>
<line x1="616.335" y1="616.335" x2="616.335" y2="73.750"/>
<line x1="775.254" y1="1000.000" x2="1158.919" y2="1158.919"/>
<line x1="775.254" y1="1000.000" x2="1158.919" y2="841.081"/>
<line x1="775.254" y1="1000.000" x2="391.589" y2="1383.665"/>
<line x1="775.254" y1="1000.000" x2="391.589" y2="616.335"/>
<line x1="775.254" y1="1000.000" x2="934.173" y2="1158.919"/>
<line x1="775.254" y1="1000.000" x2="934.173" y2="841.081"/>
<line x1="1000.000" y1="775.254" x2="1158.919" y2="1158.919"/>
<line x1="1000.000" y1="775.254" x2="1383.665" y2="616.335"/>
<line x1="1000.000" y1="775.254" x2="841.081" y2="934.173"/>
<line x1="1000.000" y1="775.254" x2="616.335" y2="391.589"/>
<line x1="1000.000" y1="775.254" x2="1158.919" y2="934.173"/>
<line x1="1000.000" y1="775.254" x2="1383.665" y2="391.589"/>
<line x1="1158.919" y1="1158.919" x2="1542.585" y2="1000.000"/>
<line x1="1158.919" y1="1158.919" x2="1158.919" y2="1701.504"/>
<line x1="1158.919" y1="1158.919" x2="934.173" y2="1158.919"/>
<line x1="1158.919" y1="1158.919" x2="1158.919" y2="934.173"/>
<line x1="1158.919" y1="1158.919" x2="1701.504" y2="1158.919"/>
<line x1="1000.000" y1="457.415" x2="1158.919" y2="841.081"/>
<line x1="1000.000" y1="457.415" x2="1383.665" y2="616.335"/>
<line x1="1000.000" y1="457.415" x2="841.081" y2="298.496"/>
<line x1="1000.000" y1="457.415" x2="616.335" y2="73.750"/>
<line x1="1000.000" y1="457.415" x2="1158.919" y2="298.496"/>
<line x1="1000.000" y1="457.415" x2="1383.665" y2="73.750"/>
<line x1="1158.919" y1="841.081" x2="1542.585" y2="1000.000"/>
<line x1="1158.919" y1="841.081" x2="1158.919" y2="1065.827"/>
<line x1="1158.919" y1="841.081" x2="934.173" y2="841.081"/>
<line x1="1158.919" y1="841.081" x2="1158.919" y2="298.496"/>
<line x1="1158.919" y1="841.081" x2="1701.504" y2="841.081"/>
<line x1="1383.665" y1="616.335" x2="1542.585" y2="1000.000"/>
<line x1="1383.665" y1="616.335" x2="1608.411" y2="616.335"/>
<line x1="1383.665" y1="616.335" x2="1383.665" y2="391.589"/>
<line x1="1383.665" y1="616.335" x2="1383.665" y2="73.750"/>
<line x1="1383.665" y1="616.335" x2="1926.250" y2="616.335"/>
<line x1="1542.585" y1="1000.000" x2="1926.250" y2="1383.665"/>
<line x1="1542.585" y1="1000.000" x2="1701.504" y2="1158.919"/>
<line x1="1542.585" y1="1000.000" x2="1701.504" y2="841.081"/>
<line x1="1542.585" y1="1000.000" x2="1926.250" y2="616.335"/>
<line x1="73.750" y1="1383.665" x2="298.496" y2="1158.919"/>
<line x1="73.750" y1="1383.665" x2="457.415" y2="1542.585"/>
<line x1="73.750" y1="1383.665" x2="298.496" y2="841.081"/>
<line x1="73.750" y1="1383.665" x2="457.415" y2="1224.746"/>
<line x1="73.750" y1="1383.665" x2="73.750" y2="616.335"/>
<line x1="73.750" y1="1383.665" x2="232.669" y2="1000.000"/>
<line x1="73.750" y1="1383.665" x2="616.335" y2="1926.250"/>
<line x1="73.750" y1="1383.665" x2="616.335" y2="1608.411"/>
<line x1="73.750" y1="1383.665" x2="391.589" y2="1383.665"/>
<line x1="298.496" y1="1158.919" x2="457.415" y2="1542.585"/>
<line x1="298.496" y1="1158.919" x2="298.496" y2="841.081"/>
<line x1="298.496" y1="1158.919" x2="682.161" y2="1000.000"/>
<line x1="298.496" y1="1158.919" x2="73.750" y2="616.335"/>
<line x1="298.496" y1="1158.919" x2="457.415" y2="775.254"/>
<line x1="298.496" y1="1158.919" x2="841.081" y2="1701.504"/>
<line x1="298.496" y1="1158.919" x2="1065.827" y2="1158.919"/>
<line x1="298.496" y1="1158.919" x2="841.081" y2="934.173"/>
<line x1="457.415" y1="1542.585" x2="616.335" y2="1926.250"/>
<line x1="457.415" y1="1542.585" x2="841.081" y2="1701.504"/>
<line x1="298.496" y1="841.081" x2="457.415" y2="1224.746"/>
<line x1="298.496" y1="841.081" x2="682.161" y2="1000.000"/>
<line x1="298.496" y1="841.081" x2="73.750" y2="616.335"/>
<line x1="298.496" y1="841.081" x2="457.415" y2="457.415"/>
<line x1="298.496" y1="841.081" x2="841.081" y2="1065.827"/>
<line x1="298.496" y1="841.081" x2="1065.827" y2="841.081"/>
<line x1="298.496" y1="841.081" x2="841.081" y2="298.496"/>
<line x1="457.415" y1="1224.746" x2="616.335" y2="1608.411"/>
<line x1="457.415" y1="1224.746" x2="841.081" y2="1065.827"/>
<line x1="682.161" y1="1000.000" x2="1065.827" y2="1158.919"/>
<line x1="682.161" y1="1000.000" x2="1065.827" y2="841.081"/>
<line x1="73.750" y1="616.335" x2="232.669" y2="1000.000"/>
<line x1="73.750" y1="616.335" x2="457.415" y2="775.254"/>
<line x1="73.750" y1="616.335" x2="457.415" y2="457.415"/>
<line x1="73.750" y1="616.335" x2="391.589" y2="616.335"/>
<line x1="73.750" y1="616.335" x2="616.335" y2="391.589"/>
<line x1="73.750" y1="616.335" x2="616.335" y2="73.750"/>
<line x1="232.669" y1="1000.000" x2="391.589" y2="1383.665"/>
<line x1="232.669" y1="1000.000" x2="391.589" y2="616.335"/>
<line x1="457.415" y1="775.254" x2="841.081" y2="934.173"/>
<line x1="457.415" y1="775.254" x2="616.335" y2="391.589"/>
<line x1="457.415" y1="457.415" x2="841.081" y2="298.496"/>
<line x1="457.415" y1="457.415" x2="616.335" y2="73.750"/>
<line x1="616.335" y1="1926.250" x2="616.335" y2="1608.411"/>
<line x1="616.335" y1="1926.250" x2="1000.000" y2="1767.331"/>
<line x1="616.335" y1="1926.250" x2="391.589" y2="1383.665"/>
<line x1="616.335" y1="1926.250" x2="775.254" y2="1542.585"/>
<line x1="616.335" y1="1926.250" x2="841.081" y2="1701.504"/>
<line x1="616.335" y1="1926.250" x2="1383.665" y2="1926.250"/>
<line x1="616.335" y1="1926.250" x2="1158.919" y2="1701.504"/>
<line x1="616.335" y1="1608.411" x2="1000.000" y2="1767.331"/>
<line x1="616.335" y1="1608.411" x2="391.589" y2="1383.665"/>
<line x1="616.335" y1="1608.411" x2="775.254" y2="1224.746"/>
<line x1="616.335" y1="1608.411" x2="841.081" y2="1065.827"/>
<line x1="616.335" y1="1608.411" x2="1383.665" y2="1608.411"/>
<line x1="616.335" y1="1608.411" x2="1158.919" y2="1065.827"/>
<line x1="1000.000" y1="1767.331" x2="1383.665" y2="1926.250"/>
<line x1="1000.000" y1="1767.331" x2="1383.665" y2="1608.411"/>
<line x1="391.589" y1="1383.665" x2="775.254" y2="1542.585"/>
<line x1="391.589" y1="1383.665" x2="775.254" y2="1224.746"/>
<line x1="391.589" y1="1383.665" x2="391.589" y2="616.335"/>
<line x1="391.589" y1="1383.665" x2="934.173" y2="1158.919"/>
<line x1="391.589" y1="1383.665" x2="934.173" y2="841.081"/>
<line x1="775.254" y1="1542.585" x2="1158.919" y2="1701.504"/>
<line x1="775.254" y1="1542.585" x2="934.173" y2="1158.919"/>
<line x1="775.254" y1="1224.746" x2="1158.919" y2="1065.827"/>
<line x1="775.254" y1="1224.746" x2="934.173" y2="841.081"/>
<line x1="841.081" y1="1701.504" x2="1065.827" y2="1158.919"/>
<line x1="841.081" y1="1701.504" x2="1224.746" y2="1542.585"/>
<line x1="841.081" y1="1701.504" x2="841.081" y2="934.173"/>
<line x1="841.081" y1="1701.504" x2="1000.000" y2="1317.839"/>
<line x1="841.081" y1="1701.504" x2="1383.665" y2="1926.250"/>
<line x1="841.081" y1="1701.504" x2="1158.919" y2="1701.504"/>
<line x1="1065.827" y1="1158.919" x2="1224.746" y2="1542.585"/>
<line x1="1065.827" y1="1158.919" x2="841.081" y2="934.173"/>
<line x1="1065.827" y1="1158.919" x2="1224.746" y2="775.254"/>
<line x1="1065.827" y1="1158.919" x2="1065.827" y2="841.081"/>
<line x1="1065.827" y1="1158.919" x2="1608.411" y2="1383.665"/>
<line x1="1065.827" y1="1158.919" x2="1608.411" y2="616.335"/>
<line x1="1224.746" y1="1542.585" x2="1383.665" y2="1926.250"/>
<line x1="1224.746" y1="1542.585" x2="1608.411" y2="1383.665"/>
<line x1="841.081" y1="934.173" x2="1000.000" y2="1317.839"/>
<line x1="841.081" y1="934.173" x2="1224.746" y2="775.254"/>
<line x1="841.081" y1="934.173" x2="616.335" y2="391.589"/>
<line x1="841.081" y1="934.173" x2="1158.919" y2="934.173"/>
<line x1="841.081" y1="934.173" x2="1383.665" y2="391.589"/>
<line x1="1000.000" y1="1317.839" x2="1158.919" y2="1701.504"/>
<line x1="1000.000" y1="1317.839" x2="1158.919" y2="934.173"/>
<line x1="1224.746" y1="775.254" x2="1608.411" y2="616.335"/>
<line x1="1224.746" y1="775.254" x2="1383.665" y2="391.589"/>
<line x1="1383.665" y1="1926.250" x2="1158.919" y2="1701.504"/>
<line x1="1383.665" y1="1926.250" x2="1542.585" y2="1542.585"/>
<line x1="1383.665" y1="1926.250" x2="1383.665" y2="1608.411"/>
<line x1="1383.665" y1="1926.250" x2="1608.411" y2="1383.665"/>
<line x1="1383.665" y1="1926.250" x2="1926.250" y2="1383.665"/>
<line x1="1158.919" y1="1701.504" x2="1542.585" y2="1542.585"/>
<line x1="1158.919" y1="1701.504" x2="934.173" y2="1158.919"/>
<line x1="1158.919" y1="1701.504" x2="1158.919" y2="934.173"/>
<line x1="1158.919" y1="1701.504" x2="1701.504" y2="1158.919"/>
<line x1="1542.585" y1="1542.585" x2="1926.250" y2="1383.665"/>
<line x1="1542.585" y1="1542.585" x2="1701.504" y2="1158.919"/>
<line x1="841.081" y1="1065.827" x2="1065.827" y2="841.081"/>
<line x1="841.081" y1="1065.827" x2="1224.746" y2="1224.746"/>
<line x1="841.081" y1="1065.827" x2="841.081" y2="298.496"/>
<line x1="841.081" y1="1065.827" x2="1000.000" y2="682.161"/>
<line x1="841.081" y1="1065.827" x2="1383.665" y2="1608.411"/>
<line x1="841.081" y1="1065.827" x2="1158.919" y2="1065.827"/>
<line x1="1065.827" y1="841.081" x2="1224.746" y2="1224.746"/>
<line x1="1065.827" y1="841.081" x2="841.081" y2="298.496"/>
<line x1="1065.827" y1="841.081" x2="1224.746" y2="457.415"/>
<line x1="1065.827" y1="841.081" x2="1608.411" y2="1383.665"/>
<line x1="1065.827" y1="841.081" x2="1608.411" y2="616.335"/>
<line x1="1224.746" y1="1224.746" x2="1383.665" y2="1608.411"/>
<line x1="1224.746" y1="1224.746" x2="1608.411" y2="1383.665"/>
<line x1="841.081" y1="298.496" x2="1000.000" y2="682.161"/>
<line x1="841.081" y1="298.496" x2="1224.746" y2="457.415"/>
<line x1="841.081" y1="298.496" x2="616.335" y2="73.750"/>
<line x1="841.081" y1="298.496" x2="1158.919" y2="298.496"/>
<line x1="841.081" y1="298.496" x2="1383.665" y2="73.750"/>
<line x1="1000.000" y1="682.161" x2="1158.919" y2="1065.827"/>
<line x1="1000.000" y1="682.161" x2="1158.919" y2="298.496"/>
<line x1="1224.746" y1="457.415" x2="1608.411" y2="616.335"/>
<line x1="1224.746" y1="457.415" x2="1383.665" y2="73.750"/>
<line x1="1383.665" y1="1608.411" x2="1158.919" y2="1065.827"/>
<line x1="1383.665" y1="1608.411" x2="1542.585" y2="1224.746"/>
<line x1="1383.665" y1="1608.411" x2="1608.411" y2="1383.665"/>
<line x1="1383.665" y1="1608.411" x2="1926.250" y2="1383.665"/>
<line x1="1158.919" y1="1065.827" x2="1542.585" y2="1224.746"/>
<line x1="1158.919" y1="1065.827" x2="934.173" y2="841.081"/>
<line x1="1158.919" y1="1065.827" x2="1158.919" y2="298.496"/>
<line x1="1158.919" y1="1065.827" x2="1701.504" y2="841.081"/>
<line x1="1542.585" y1="1224.746" x2="1926.250" y2="1383.665"/>
<line x1="1542.585" y1="1224.746" x2="1701.504" y2="841.081"/>
<line x1="1608.411" y1="1383.665" x2="1608.411" y2="616.335"/>
<line x1="1608.411" y1="1383.665" x2="1767.331" y2="1000.000"/>
<line x1="1608.411" y1="1383.665" x2="1926.250" y2="1383.665"/>
<line x1="1608.411" y1="616.335" x2="1767.331" y2="1000.000"/>
<line x1="1608.411" y1="616.335" x2="1383.665" y2="391.589"/>
<line x1="1608.411" y1="616.335" x2="1383.665" y2="73.750"/>
<line x1="1608.411" y1="616.335" x2="1926.250" y2="616.335"/>
<line x1="1767.331" y1="1000.000" x2="1926.250" y2="1383.665"/>
<line x1="1767.331" y1="1000.000" x2="1926.250" y2="616.335"/>
<line x1="1926.250" y1="1383.665" x2="1701.504" y2="1158.919"/>
<line x1="1926.250" y1="1383.665" x2="1701.504" y2="841.081"/>
<line x1="1926.250" y1="1383.665" x2="1926.250" y2="616.335"/>
<line x1="391.589" y1="616.335" x2="616.335" y2="391.589"/>
<line x1="391.589" y1="616.335" x2="775.254" y2="775.254"/>
<line x1="391.589" y1="616.335" x2="616.335" y2="73.750"/>
<line x1="391.589" y1="616.335" x2="775.254" y2="457.415"/>
<line x1="391.589" y1="616.335" x2="934.173" y2="1158.919"/>
<line x1="391.589" y1="616.335" x2="934.173" y2="841.081"/>
<line x1="616.335" y1="391.589" x2="775.254" y2="775.254"/>
<line x1="616.335" y1="391.589" x2="616.335" y2="73.750"/>
<line x1="616.335" y1="391.589" x2="1000.000" y2="232.669"/>
<line x1="616.335" y1="391.589" x2="1158.919" y2="934.173"/>
<line x1="616.335" y1="391.589" x2="1383.665" y2="391.589"/>
<line x1="775.254" y1="775.254" x2="934.173" y2="1158.919"/>
<line x1="775.254" y1="775.254" x2="1158.919" y2="934.173"/>
<line x1="616.335" y1="73.750" x2="775.254" y2="457.415"/>
<line x1="616.335" y1="73.750" x2="1000.000" y2="232.669"/>
<line x1="616.335" y1="73.750" x2="1158.919" y2="298.496"/>
<line x1="616.335" y1="73.750" x2="1383.665" y2="73.750"/>
<line x1="775.254" y1="457.415" x2="934.173" y2="841.081"/>
<line x1="775.254" y1="457.415" x2="1158.919" y2="298.496"/>
<line x1="1000.000" y1="232.669" x2="1383.665" y2="391.589"/>
<line x1="1000.000" y1="232.669" x2="1383.665" y2="73.750"/>
<line x1="934.173" y1="1158.919" x2="934.173" y2="841.081"/>
<line x1="934.173" y1="1158.919" x2="1317.839" y2="1000.000"/>
<line x1="934.173" y1="1158.919" x2="1158.919" y2="934.173"/>
<line x1="934.173" y1="1158.919" x2="1701.504" y2="1158.919"/>
<line x1="934.173" y1="841.081" x2="1317.839" y2="1000.000"/>
<line x1="934.173" y1="841.081" x2="1158.919" y2="298.496"/>
<line x1="934.173" y1="841.081" x2="1701.504" y2="841.081"/>
<line x1="1317.839" y1="1000.000" x2="1701.504" y2="1158.919"/>
<line x1="1317.839" y1="1000.000" x2="1701.504" y2="841.081"/>
<line x1="1158.919" y1="934.173" x2="1383.665" y2="391.589"/>
<line x1="1158.919" y1="934.173" x2="1542.585" y2="775.254"/>
<line x1="1158.919" y1="934.173" x2="1701.504" y2="1158.919"/>
<line x1="1383.665" y1="391.589" x2="1542.585" y2="775.254"/>
<line x1="1383.665" y1="391.589" x2="1383.665" y2="73.750"/>
<line x1="1383.665" y1="391.589" x2="1926.250" y2="616.335"/>
<line x1="1542.585" y1="775.254" x2="1701.504" y2="1158.919"/>
<line x1="1542.585" y1="775.254" x2="1926.250" y2="616.335"/>
<line x1="1701.504" y1="1158.919" x2="1701.504" y2="841.081"/>
<line x1="1701.504" y1="1158.919" x2="1926.250" y2="616.335"/>
<line x1="1158.919" y1="298.496" x2="1383.665" y2="73.750"/>
<line x1="1158.919" y1="298.496" x2="1542.585" y2="457.415"/>
<line x1="1158.919" y1="298.496" x2="1701.504" y2="841.081"/>
<line x1="1383.665" y1="73.750" x2="1542.585" y2="457.415"/>
<line x1="1383.665" y1="73.750" x2="1926.250" y2="616.335"/>
<line x1="1542.585" y1="457.415" x2="1701.504" y2="841.081"/>
<line x1="1542.585" y1="457.415" x2="1926.250" y2="616.335"/>
<line x1="1701.504" y1="841.081" x2="1926.250" y2="616.335"/>
</g>
<g style="stroke:#000000;stroke-width:2.5;fill:#ff0000">
<circle cx="298.496" cy="1383.665" r="25.0"/>
<circle cx="457.415" cy="1767.331" r="25.0"/>
<circle cx="682.161" cy="1542.585" r="25.0"/>
<circle cx="841.081" cy="1926.250" r="25.0"/>
<circle cx="682.161" cy="1224.746" r="25.0"/>
<circle cx="841.081" cy="1608.411" r="25.0"/>
<circle cx="1065.827" cy="1383.665" r="25.0"/>
<circle cx="1224.746" cy="1767.331" r="25.0"/>
<circle cx="775.254" cy="232.669" r="25.0"/>
<circle cx="934.173" cy="616.335" r="25.0"/>
<circle cx="1158.919" cy="391.589" r="25.0"/>
<circle cx="1317.839" cy="775.254" r="25.0"/>
<circle cx="1158.919" cy="73.750" r="25.0"/>
<circle cx="1317.839" cy="457.415" r="25.0"/>
<circle cx="1542.585" cy="232.669" r="25.0"/>
<circle cx="1701.504" cy="616.335" r="25.0"/>
<circle cx="73.750" cy="1158.919" r="25.0"/>
<circle cx="232.669" cy="1542.585" r="25.0"/>
<circle cx="457.415" cy="1317.839" r="25.0"/>
<circle cx="616.335" cy="1701.504" r="25.0"/>
<circle cx="232.669" cy="775.254" r="25.0"/>
<circle cx="391.589" cy="1158.919" r="25.0"/>
<circle cx="616.335" cy="934.173" r="25.0"/>
<circle cx="775.254" cy="1317.839" r="25.0"/>
<circle cx="1224.746" cy="682.161" r="25.0"/>
<circle cx="1383.665" cy="1065.827" r="25.0"/>
<circle cx="1608.411" cy="841.081" r="25.0"/>
<circle cx="1767.331" cy="1224.746" r="25.0"/>
<circle cx="1383.665" cy="298.496" r="25.0"/>
<circle cx="1542.585" cy="682.161" r="25.0"/>
<circle cx="1767.331" cy="457.415" r="25.0"/>
<circle cx="1926.250" cy="841.081" r="25.0"/>
<circle cx="73.750" cy="841.081" r="25.0"/>
<circle cx="232.669" cy="1224.746" r="25.0"/>
<circle cx="457.415" cy="682.161" r="25.0"/>
<circle cx="616.335" cy="1065.827" r="25.0"/>
<circle cx="232.669" cy="457.415" r="25.0"/>
<circle cx="391.589" cy="841.081" r="25.0"/>
<circle cx="616.335" cy="298.496" r="25.0"/>
<circle cx="775.254" cy="682.161" r="25.0"/>
<circle cx="1224.746" cy="1317.839" r="25.0"/>
<circle cx="1383.665" cy="1701.504" r="25.0"/>
<circle cx="1608.411" cy="1158.919" r="25.0"/>
<circle cx="1767.331" cy="1542.585" r="25.0"/>
<circle cx="1383.665" cy="934.173" r="25.0"/>
<circle cx="1542.585" cy="1317.839" r="25.0"/>
<circle cx="1767.331" cy="775.254" r="25.0"/>
<circle cx="1926.250" cy="1158.919" r="25.0"/>
<circle cx="298.496" cy="616.335" r="25.0"/>
<circle cx="682.161" cy="775.254" r="25.0"/>
<circle cx="682.161" cy="457.415" r="25.0"/>
<circle cx="1065.827" cy="616.335" r="25.0"/>
<circle cx="457.415" cy="232.669" r="25.0"/>
<circle cx="841.081" cy="391.589" r="25.0"/>
<circle cx="841.081" cy="73.750" r="25.0"/>
<circle cx="1224.746" cy="232.669" r="25.0"/>
<circle cx="775.254" cy="1767.331" r="25.0"/>
<circle cx="1158.919" cy="1926.250" r="25.0"/>
<circle cx="1158.919" cy="1608.411" r="25.0"/>
<circle cx="1542.585" cy="1767.331" r="25.0"/>
<circle cx="934.173" cy="1383.665" r="25.0"/>
<circle cx="1317.839" cy="1542.585" r="25.0"/>
<circle cx="1317.839" cy="1224.746" r="25.0"/>
<circle cx="1701.504" cy="1383.665" r="25.0"/>
<circle cx="73.750" cy="1383.665" r="25.0"/>
<circle cx="298.496" cy="1158.919" r="25.0"/>
<circle cx="298.496" cy="841.081" r="25.0"/>
<circle cx="73.750" cy="616.335" r="25.0"/>
<circle cx="616.335" cy="1926.250" r="25.0"/>
<circle cx="616.335" cy="1608.411" r="25.0"/>
<circle cx="391.589" cy="1383.665" r="25.0"/>
<circle cx="841.081" cy="1701.504" r="25.0"/>
<circle cx="1065.827" cy="1158.919" r="25.0"/>
<circle cx="841.081" cy="934.173" r="25.0"/>
<circle cx="1383.665" cy="1926.250" r="25.0"/>
<circle cx="1158.919" cy="1701.504" r="25.0"/>
<circle cx="841.081" cy="1065.827" r="25.0"/>
<circle cx="1065.827" cy="841.081" r="25.0"/>
<circle cx="841.081" cy="298.496" r="25.0"/>
<circle cx="1383.665" cy="1608.411" r="25.0"/>
<circle cx="1158.919" cy="1065.827" r="25.0"/>
<circle cx="1608.411" cy="1383.665" r="25.0"/>
<circle cx="1608.411" cy="616.335" r="25.0"/>
<circle cx="1926.250" cy="1383.665" r="25.0"/>
<circle cx="391.589" cy="616.335" r="25.0"/>
<circle cx="616.335" cy="391.589" r="25.0"/>
<circle cx="616.335" cy="73.750" r="25.0"/>
<circle cx="934.173" cy="1158.919" r="25.0"/>
<circle cx="934.173" cy="841.081" r="25.0"/>
<circle cx="1158.919" cy="934.173" r="25.0"/>
<circle cx="1383.665" cy="391.589" r="25.0"/>
<circle cx="1701.504" cy="1158.919" r="25.0"/>
<circle cx="1158.919" cy="298.496" r="25.0"/>
<circle cx="1383.665" cy="73.750" r="25.0"/>
<circle cx="1701.504" cy="841.081" r="25.0"/>
<circle cx="1926.250" cy="616.335" r="25.0"/>
</g>
<g style="stroke:#000000;stroke-width:2.5;fill:#ff7f00">
<circle cx="841.081" cy="1383.665" r="25.0"/>
<circle cx="1158.919" cy="616.335" r="25.0"/>
<circle cx="616.335" cy="1158.919" r="25.0"/>
<circle cx="1383.665" cy="841.081" r="25.0"/>
<circle cx="616.335" cy="841.081" r="25.0"/>
<circle cx="1383.665" cy="1158.919" r="25.0"/>
<circle cx="841.081" cy="616.335" r="25.0"/>
<circle cx="1158.919" cy="1383.665" r="25.0"/>
<circle cx="457.415" cy="1000.000" r="25.0"/>
<circle cx="1000.000" cy="1542.585" r="25.0"/>
<circle cx="1000.000" cy="1224.746" r="25.0"/>
<circle cx="1224.746" cy="1000.000" r="25.0"/>
<circle cx="775.254" cy="1000.000" r="25.0"/>
<circle cx="1000.000" cy="775.254" r="25.0"/>
<circle cx="1000.000" cy="457.415" r="25.0"/>
<circle cx="1542.585" cy="1000.000" r="25.0"/>
<circle cx="616.335" cy="1383.665" r="25.0"/>
<circle cx="841.081" cy="1158.919" r="25.0"/>
<circle cx="841.081" cy="841.081" r="25.0"/>
<circle cx="1383.665" cy="1383.665" r="25.0"/>
<circle cx="616.335" cy="616.335" r="25.0"/>
<circle cx="1158.919" cy="1158.919" r="25.0"/>
<circle cx="1158.919" cy="841.081" r="25.0"/>
<circle cx="1383.665" cy="616.335" r="25.0"/>
</g>
<g style="stroke:#000000;stroke-width:2.5;fill:#ffff00">
<circle cx="457.415" cy="1542.585" r="25.0"/>
<circle cx="1224.746" cy="1224.746" r="25.0"/>
<circle cx="457.415" cy="1224.746" r="25.0"/>
<circle cx="1224.746" cy="1542.585" r="25.0"/>
<circle cx="682.161" cy="1000.000" r="25.0"/>
<circle cx="1000.000" cy="1767.331" r="25.0"/>
<circle cx="775.254" cy="775.254" r="25.0"/>
<circle cx="1542.585" cy="457.415" r="25.0"/>
<circle cx="775.254" cy="457.415" r="25.0"/>
<circle cx="1542.585" cy="775.254" r="25.0"/>
<circle cx="1000.000" cy="232.669" r="25.0"/>
<circle cx="1317.839" cy="1000.000" r="25.0"/>
<circle cx="232.669" cy="1000.000" r="25.0"/>
<circle cx="1000.000" cy="1317.839" r="25.0"/>
<circle cx="457.415" cy="775.254" r="25.0"/>
<circle cx="775.254" cy="1542.585" r="25.0"/>
<circle cx="1000.000" cy="682.161" r="25.0"/>
<circle cx="1767.331" cy="1000.000" r="25.0"/>
<circle cx="1224.746" cy="457.415" r="25.0"/>
<circle cx="1542.585" cy="1224.746" r="25.0"/>
<circle cx="457.415" cy="457.415" r="25.0"/>
<circle cx="775.254" cy="1224.746" r="25.0"/>
<circle cx="1224.746" cy="775.254" r="25.0"/>
<circle cx="1542.585" cy="1542.585" r="25.0"/>
</g>
</svg>
